<svg version="1.1" xmlns="http://www.w3.org/2000/svg" viewBox="0 0 1069.623579136298 268.7466360706836" width="1069.623579136298" height="268.7466360706836">
  <!-- svg-source:excalidraw -->
  
  <defs>
    <style class="style-fonts">
      @font-face {
        font-family: "Virgil";
        src: url("https://excalidraw.com/Virgil.woff2");
      }
      @font-face {
        font-family: "Cascadia";
        src: url("https://excalidraw.com/Cascadia.woff2");
      }
    </style>
  </defs>
  <rect x="0" y="0" width="1069.623579136298" height="268.7466360706836" fill="#ffffff"></rect><g stroke-linecap="round" transform="translate(951.3940199519636 98.64414193202583) rotate(0 40.285897833115996 26.85726522207733)"><path d="M0 0 C0 0, 0 0, 0 0 M0 0 C0 0, 0 0, 0 0 M-0.62 6.99 C0.72 5.33, 1.16 3.18, 5.06 0.94 M-0.05 6.64 C0.96 4.64, 2.81 3.22, 5.25 0.61 M0.34 10.73 C3.41 7.51, 6.94 4.82, 11.12 0.96 M0.51 12.47 C2.85 10.04, 5.47 6.43, 10.42 -0.6 M-1.7 19.06 C7.27 13.13, 13.31 3.98, 14.98 1.99 M-0.49 18.87 C4.48 12.59, 9.43 9.32, 15.19 0.77 M0.42 23.1 C7.61 16.06, 12.43 9.92, 20.85 -1.75 M-0.58 24.09 C8.23 16.47, 15.54 7.24, 22.06 0.74 M-0.21 29.7 C6.34 23.64, 15.52 12.55, 26.68 0.85 M0.95 30.56 C8.11 20.54, 17.69 8.95, 25.53 0.57 M-0.07 37 C8.32 23.41, 22.03 14.01, 31.64 -0.36 M-0.35 37.79 C6.66 28.69, 14.4 19.83, 31.13 -0.82 M-0.48 40.67 C13.88 26.64, 27.75 8.21, 35.6 -0.13 M-0.83 42.05 C14.39 26.22, 27.87 10.68, 36.27 -0.61 M-0.83 50.49 C13.93 31.93, 26.41 19.04, 43.17 0.4 M-0.55 49 C10.16 36.32, 21.81 24.27, 42.69 -0.79 M0.67 53.38 C13.7 38.29, 32.09 19.64, 47.04 2.11 M0.48 53.77 C18.73 33.71, 36.81 12.45, 47.31 0.23 M4.32 54.95 C25.57 33.13, 42.09 10.05, 51.98 -1.89 M5.12 54.5 C16.22 42.99, 27.48 30.3, 52.67 -1.06 M9.88 55.68 C27.96 34.83, 46.96 11.12, 58.25 2.14 M10.46 53.58 C26.67 37.04, 41.04 22, 57.81 1.09 M14.94 52.84 C31.56 37.58, 45.02 20.83, 65.55 -1.16 M15.7 53.59 C35.13 33.98, 52.64 13.87, 64.71 -1.01 M19.78 56.12 C38.71 35.59, 55.39 15.07, 68.45 0.07 M21.46 53.98 C40.3 33.9, 57.62 13.12, 69.17 -0.07 M25.3 55.92 C37.58 42.71, 44.36 33.34, 76.35 -0.78 M27.2 53.36 C39.17 41.21, 49.98 27.06, 75.24 -0.56 M30.46 53.69 C43.54 41.9, 55.64 25.28, 80.86 -0.46 M33.11 54.88 C47.09 38.82, 60.64 21.27, 80.09 -0.28 M38.22 54.21 C50.58 38.24, 65.07 23.03, 81.84 2.68 M37.51 54.56 C53.26 35.28, 71.57 15.02, 82.49 1.14 M40.97 55.93 C52.53 44.43, 59.69 30.96, 81.41 10.03 M42.78 54.65 C55.32 39.99, 68.19 26.79, 82.31 7.69 M46.48 55.26 C55.39 44.05, 65.34 36.71, 83.85 12.45 M48.76 53.95 C62.45 38.05, 74.7 23.77, 82.87 13.69 M55.34 52.9 C61.77 45.01, 68.57 38.4, 83.17 19.7 M52.63 55.18 C62.03 45.1, 69.75 34.83, 81.98 21.25 M58.86 54.14 C62.69 47.53, 68.46 44.2, 81.64 27.68 M58.35 53.28 C65.59 46.6, 74.26 36.75, 82.97 26.58 M64.56 55.19 C68.74 47.64, 71.83 45.15, 84.54 31.01 M64.56 54.81 C70.2 47.08, 74.26 41.39, 82.86 32.54 M70.07 55.46 C72.41 49.66, 80.01 46.34, 80.85 37.61 M69.96 54.26 C72.86 49.21, 76.67 46.64, 83.59 38.32 M75.92 55.36 C77.6 50.75, 80.04 48.04, 84.1 45.3 M75.05 53.72 C77.97 50.02, 81.16 46.51, 82.88 44.47 M80.02 54.21 C80.98 52.78, 82.12 51.96, 83.18 50.78 M80.36 53.86 C81.22 52.66, 82.3 51.61, 83.03 50.76" stroke="#ced4da" stroke-width="0.5" fill="none"></path><path d="M-0.53 1.18 C22.64 -1.34, 43.71 1.69, 80.39 1.78 M-0.17 -0.87 C26.59 -0.89, 53.88 -0.23, 80.53 -0.7 M81.09 0.72 C82.33 14.2, 81.88 28.23, 80.68 52.26 M80.18 0.95 C79.43 17.88, 80.88 35.37, 80.54 54.5 M79.51 52.22 C60.18 53.32, 40.93 53.67, 0.86 54.39 M80.03 54.18 C60.29 53.26, 39.01 54.29, -0.96 53.67 M-1.45 53.16 C-1.71 41.23, 1.2 31.51, -0.43 1.88 M-0.13 53.81 C-0.79 40.58, 0.03 28.24, 0.14 0.75" stroke="#000000" stroke-width="1" fill="none"></path></g><g stroke-linecap="round"><g transform="translate(951.4915454255229 152.72730655992302) rotate(0 40.83536987500975 15.850847385866587)" fill-rule="evenodd"><path d="M0 0 C0 0, 0 0, 0 0 M0 0 C0 0, 0 0, 0 0 M-20.93 30.11 C-14.5 21.35, -7.11 13.79, 3.31 1.17 M-19.94 29.69 C-13.7 23.52, -9.03 16.97, 5.8 0.24 M-17.7 30.56 C-5.8 21.52, 1.1 10.74, 11.19 0.79 M-16.84 30.71 C-9.29 22.66, -3.27 13.86, 10.91 0.1 M-11.81 30.19 C-8.03 27.14, -0.05 18.43, 15.36 -0.92 M-11.02 31.02 C-5.16 24.04, 0.95 17.07, 14.9 1.17 M-8.8 32.19 C3.16 20.85, 10.69 8.86, 20.87 1.16 M-7.42 33.05 C-1.53 26.15, 4.62 17.32, 20.39 0.07 M0.27 32.63 C5.44 22.36, 16.18 13.84, 26.79 -0.68 M-1.23 31.93 C8.71 21.08, 19.35 8.46, 25.59 0.59 M2.5 30.5 C15.26 21.74, 24.55 8.79, 33.78 1.6 M2.88 32.97 C14.13 20.84, 24.2 8.18, 31.9 0.78 M10.1 33.06 C16.52 23.31, 21.62 14.67, 35.16 -1.39 M9.65 31.52 C15.73 25.95, 20.74 18.15, 35.99 1.16 M15.46 30.6 C22.55 23.42, 26.91 16.85, 44.47 0.08 M13.36 33.11 C20.56 24.95, 29.35 16.12, 43.42 -0.12 M18.66 33.07 C30.08 20.66, 40.01 10.26, 46.55 1.65 M19.41 32.66 C26.61 25.12, 33.41 17.59, 46.7 0.84 M26.56 32.81 C36.2 20.44, 45.94 7.76, 53.07 1.51 M24.43 32.59 C32.05 23.9, 39 16.93, 52.93 -1.16 M32.4 33.21 C40.53 18.8, 52.47 10.2, 57.6 -0.89 M29.84 31.99 C38.14 23.2, 44.29 16.76, 57.82 -0.2 M34.8 31.43 C46.34 20.78, 53.17 12.68, 63.2 -0.19 M35.99 32.79 C43.85 23.16, 50.21 15.28, 63.38 -0.14 M41.36 31.02 C51.01 20.52, 61.38 8.4, 69.46 1.62 M41.71 30.9 C52.72 19.86, 62.81 6.29, 67.92 -0.47 M47.71 32.71 C57.46 18.83, 65.17 7.53, 76.05 -0.16 M46.43 32.37 C52.96 24.73, 61.01 15.03, 73.72 -1.09 M53.07 30.98 C56.56 26.73, 63.9 18.73, 77.81 1.79 M51.76 32.55 C59.83 21.48, 69.5 11.59, 79.06 -0.23 M55.34 32.87 C65.57 21.11, 77.06 11.16, 82.34 1.7 M57.62 32.26 C64.4 23.52, 70.99 14.96, 83.9 1 M62.62 30.56 C67.67 24.51, 75.98 16.57, 86.29 5.46 M61.75 30.89 C68.31 26.82, 71.7 20.82, 85.19 4.78 M68.29 32.13 C71.18 24.61, 79.16 21.6, 87 7.71 M67.92 32.63 C70.72 26.23, 75.57 21.98, 88.53 8.15 M74.6 30.19 C77.45 29.14, 82.78 20.82, 89.56 10.65 M73.4 31.59 C79.34 23.83, 87.77 16.34, 90.27 11.31 M79.69 32.64 C80.43 28.49, 84.08 25.52, 94.4 16.63 M77.16 31.95 C81.46 26.98, 86.04 22.28, 93.12 14.62 M85.09 31.29 C86.74 28.29, 91.28 22.99, 95.61 19.04 M83.42 31.15 C87.25 26.87, 91.8 22.93, 95.51 17.14 M87.56 32.42 C91.98 28.4, 94.86 25.02, 97.52 19.95 M89.44 31.96 C90.94 29.42, 94.09 25.4, 98.04 20.13 M95.17 30.92 C96.86 29.03, 98.58 26.4, 101.21 24.12 M94.42 31.69 C96.67 29.05, 98.37 26.31, 100.54 23.96" stroke="#ced4da" stroke-width="0.5" fill="none"></path><path d="M1.18 -0.03 C-8.59 6.23, -12.16 15.58, -20.6 27.49 M-0.87 -0.13 C-8.44 10.39, -16.11 19.92, -23.08 26.61 M-22.16 27.31 C-21.04 28.69, -19.79 29.93, -18.59 31.38 M-22.09 26.63 C-21.33 28.07, -20.41 28.83, -17.91 31.09 M-19.65 31.6 C26.5 33.74, 72.31 32.7, 99.25 30.4 M-17.69 31.8 C6.72 32.01, 33.25 30.88, 98.53 30.39 M98.4 30.85 C100.02 30.06, 102.35 27.67, 103.53 26.53 M98.6 31.13 C100.35 29.66, 102.37 27.8, 103.18 26.6 M104.75 28.23 C94.49 18.98, 88.96 5.81, 78.59 0.83 M103.59 25.98 C97.31 20.39, 90.78 13.42, 81.13 -0.95 M82.05 -0.17 C53.63 -2.13, 24.03 -0.17, 1.44 -0.79 M81.17 -0.22 C48.62 1.42, 17.54 1.08, 0.62 0.41 M0 0 C0 0, 0 0, 0 0 M0 0 C0 0, 0 0, 0 0" stroke="#000000" stroke-width="1" fill="none"></path></g></g><mask></mask><g stroke-linecap="round" transform="translate(953.3162736415102 100.66440913382064) rotate(0 38.1606027005663 24.692154688601704)"><path d="M-1.96 1.53 L78.12 1.38 L75.71 51.07 L1.97 47.63" stroke="none" stroke-width="0" fill="#fff"></path><path d="M-0.03 -1.84 C16.59 0.74, 36.24 1.33, 76.95 1.45 M-0.13 -0.3 C28.89 1.03, 56.87 -0.03, 76.07 0.5 M77.81 -0.59 C77.49 18.02, 76.55 37.28, 76.87 47.9 M75.58 0.29 C76.83 15.48, 76.1 31.38, 75.9 50.28 M76.7 48.57 C51.31 48.35, 23.35 49.49, -0.82 47.75 M76.9 48.76 C51.94 50.14, 26.26 49.7, -0.83 50.33 M-1.2 48.57 C2.07 32.4, -0.08 15.03, -1.07 1.95 M-0.27 49.48 C0.61 36.3, 0.21 21.98, -0.84 0.62" stroke="#000000" stroke-width="1" fill="none"></path></g><g stroke-linecap="round"><g transform="translate(982.727496044387 165.78730498721916) rotate(0 9.104433977574445 4.556367243303214)" fill-rule="evenodd"><path d="M-0.9 1.47 L-4.65 9.32 L20.62 7.04 L18.1 1.44 L-0.79 1.81" stroke="none" stroke-width="0" fill="#fff" fill-rule="evenodd"></path><path d="M-0.92 -0.81 C-0.57 2.35, -1.5 5.21, -3.75 9.68 M-0.15 0.22 C-1.16 2.51, -2.96 4.93, -4.23 9.41 M-5.07 9.99 C2.92 8.86, 11.57 9.3, 20.89 9.15 M-4.18 9.66 C2.72 9.12, 10.33 8.73, 23.28 9.48 M21.97 9.91 C21.11 7.18, 20.58 4.12, 17.09 0.22 M22.07 9.04 C21.44 6.29, 20.12 4.16, 18.38 0.33 M17.17 1.53 C14.84 -0.49, 11.44 -1.07, 1.75 -0.27 M17.99 0.49 C13.66 0.08, 8.29 -0.8, 0.56 -0.88 M0 0 C0 0, 0 0, 0 0 M0 0 C0 0, 0 0, 0 0" stroke="#000000" stroke-width="1" fill="none"></path></g></g><mask></mask><g stroke-linecap="round"><g transform="translate(929.0129656002325 179.21593759825805) rotate(0 62.583349694943536 0.9526590680507638)"><path d="M-1.62 1.19 C44.79 2.93, 90.58 2.6, 126.79 -0.34 M0.43 0.36 C26.62 -0.32, 53.07 0.88, 126.26 0.26" stroke="#000000" stroke-width="1" fill="none"></path></g></g><mask></mask><g stroke-linecap="round"><g transform="translate(11.642989053260521 95.85902574902917) rotate(0 82.94596912789302 7.775296101447026)"><path d="M-0.12 0.56 C-0.03 2.96, -0.72 10.6, -0.2 13.65 C0.32 16.71, -0.03 17.88, 3.02 18.92 C6.08 19.96, 6.12 19.74, 18.12 19.92 C30.12 20.1, 54.51 19.67, 75.03 19.98 C95.55 20.3, 127.59 21.56, 141.25 21.82 C154.91 22.07, 153.34 22.09, 157.01 21.51 C160.67 20.93, 161.89 19.42, 163.25 18.34 C164.6 17.26, 164.63 17.24, 165.15 15.02 C165.67 12.81, 166.52 7.84, 166.36 5.02 C166.21 2.2, 165.76 -0.52, 164.22 -1.91 C162.67 -3.31, 160.96 -2.7, 157.1 -3.35 C153.25 -4.01, 154.75 -5.32, 141.07 -5.82 C127.39 -6.33, 95.65 -6.54, 75.02 -6.38 C54.39 -6.23, 29.19 -5.29, 17.32 -4.9 C5.45 -4.52, 6.87 -4.72, 3.8 -4.08 C0.72 -3.44, -0.43 -1.7, -1.14 -1.07 M-1.64 -0.18 C-1.09 1.91, 1.53 8.49, 2.18 11.8 C2.84 15.12, -0.4 18.25, 2.29 19.71 C4.97 21.17, 5.89 20.55, 18.3 20.57 C30.72 20.59, 56.56 19.72, 76.77 19.81 C96.97 19.9, 126.13 21.05, 139.54 21.14 C152.95 21.23, 153.45 20.93, 157.2 20.34 C160.96 19.75, 160.46 18.67, 162.06 17.62 C163.66 16.58, 165.93 16.21, 166.81 14.08 C167.68 11.95, 167.67 7.4, 167.29 4.83 C166.91 2.26, 165.94 0.02, 164.53 -1.34 C163.13 -2.7, 162.67 -2.96, 158.88 -3.31 C155.08 -3.66, 155.87 -3.41, 141.76 -3.45 C127.66 -3.48, 94.88 -3.24, 74.23 -3.52 C53.57 -3.8, 29.96 -4.7, 17.83 -5.14 C5.7 -5.59, 4.32 -6.89, 1.46 -6.18 C-1.4 -5.47, 0.63 -1.9, 0.67 -0.88" stroke="#000000" stroke-width="1" fill="none"></path></g></g><mask></mask><g stroke-linecap="round"><g transform="translate(21.216005694330192 96.22208627598576) rotate(0 44.41840501514122 7.651886023035303)"><path d="M0.56 -0.62 C12.77 -0.58, 57.96 -0.25, 72.52 0.15 C87.09 0.56, 84.88 0.64, 87.96 1.8 C91.05 2.96, 91.11 4.85, 91.04 7.11 C90.97 9.37, 90.33 14.26, 87.56 15.37 C84.79 16.47, 86.14 13.97, 74.42 13.76 C62.7 13.55, 29.92 14.32, 17.23 14.1 C4.55 13.89, 1.46 14.27, -1.66 12.46 C-4.79 10.65, -1.87 5.32, -1.51 3.25 C-1.15 1.17, 0.38 0.68, 0.5 -0.01 M-0.6 1.66 C11.56 1.93, 56.69 1.49, 71.84 1.72 C87 1.95, 87.16 2.05, 90.33 3.05 C93.49 4.06, 91.03 6.16, 90.84 7.76 C90.65 9.36, 92.24 11.27, 89.19 12.64 C86.14 14, 84.39 15.93, 72.54 15.93 C60.68 15.92, 30.05 13.29, 18.06 12.6 C6.07 11.91, 4.06 13.55, 0.6 11.79 C-2.87 10.03, -2.9 4.06, -2.74 2.02 C-2.59 -0.02, 1.22 -0.06, 1.53 -0.46" stroke="#000000" stroke-width="1" fill="none"></path></g></g><mask></mask><g stroke-linecap="round"><g transform="translate(138.43156661755313 99.6141640564025) rotate(0 7.1015483622229 3.7004042582312024)"><path d="M-0.62 0.51 C-0.09 -0.35, 0.69 -3.94, 3.08 -4.58 C5.46 -5.22, 11.88 -4.65, 13.7 -3.33 C15.53 -2, 13.88 0.95, 14.03 3.37 C14.19 5.8, 16.62 9.9, 14.64 11.21 C12.66 12.51, 4.6 11.83, 2.16 11.21 C-0.29 10.58, 0.45 8.75, -0.03 7.44 C-0.51 6.13, -0.78 4.51, -0.73 3.35 C-0.67 2.2, 0.18 1.19, 0.3 0.5 M1.25 -0.27 C1.64 -1.06, 0.22 -3.21, 2.16 -3.57 C4.09 -3.94, 10.93 -3.71, 12.88 -2.46 C14.82 -1.21, 13.69 1.51, 13.83 3.91 C13.96 6.32, 15.49 10.89, 13.71 11.96 C11.92 13.03, 5.33 10.78, 3.12 10.35 C0.91 9.92, 0.72 10.53, 0.46 9.38 C0.2 8.23, 1.85 5.12, 1.58 3.45 C1.3 1.78, -1.07 0.23, -1.21 -0.62" stroke="#000000" stroke-width="1" fill="none"></path></g></g><mask></mask><g stroke-linecap="round"><g transform="translate(157.38753338212655 99.59102002014777) rotate(0 7.500651835827739 3.4448761371600085)"><path d="M0.51 0.06 C0.56 -0.36, -1.19 -2.56, 0.88 -3.12 C2.96 -3.69, 10.8 -4.76, 12.96 -3.33 C15.12 -1.9, 13.62 3.21, 13.82 5.47 C14.02 7.73, 15.84 9.35, 14.16 10.23 C12.49 11.1, 6.21 11.04, 3.78 10.71 C1.34 10.38, 0.04 9.28, -0.44 8.22 C-0.92 7.17, 0.72 5.75, 0.88 4.38 C1.03 3, 0.78 0.87, 0.5 -0.01 M-0.68 -0.96 C-0.31 -1.13, 0.38 -1.4, 3.06 -1.65 C5.74 -1.9, 13.66 -3.32, 15.4 -2.47 C17.14 -1.62, 13.89 1.35, 13.5 3.46 C13.11 5.56, 15.02 9.16, 13.06 10.17 C11.09 11.18, 3.91 9.51, 1.71 9.51 C-0.49 9.52, 0.07 11.09, -0.17 10.21 C-0.41 9.32, 0.41 6.13, 0.29 4.19 C0.17 2.26, -0.79 -1, -0.91 -1.39" stroke="#000000" stroke-width="1" fill="none"></path></g></g><mask></mask><g stroke-linecap="round"><g transform="translate(11.642989053260521 123.39373928410066) rotate(0 82.55537594325313 8.061323491977703)"><path d="M0.06 -1.01 C0.21 0.95, -0.03 8.98, 0.31 12.29 C0.65 15.6, -1.05 17.32, 2.11 18.85 C5.26 20.38, 7.1 21.04, 19.26 21.47 C31.41 21.89, 54.93 21.57, 75.04 21.4 C95.15 21.22, 126.23 20.32, 139.93 20.42 C153.63 20.52, 153.25 22.14, 157.23 22 C161.22 21.85, 162.42 20.98, 163.85 19.54 C165.27 18.11, 165.55 15.76, 165.77 13.41 C165.99 11.05, 165.27 7.98, 165.16 5.41 C165.05 2.84, 166.32 -0.2, 165.1 -2.01 C163.88 -3.81, 161.93 -5.01, 157.84 -5.39 C153.75 -5.78, 154.24 -4.46, 140.56 -4.34 C126.87 -4.21, 96.52 -4.27, 75.73 -4.64 C54.94 -5.02, 27.98 -6.53, 15.82 -6.58 C3.66 -6.62, 5.42 -6.05, 2.8 -4.92 C0.17 -3.79, 0.71 -0.65, 0.09 0.2 M-1.38 1.08 C-1.33 3.12, -1.69 10.29, -0.7 13.37 C0.29 16.46, 1.09 18.62, 4.55 19.61 C8 20.59, 8 18.88, 20.04 19.27 C32.08 19.67, 56.59 21.4, 76.78 21.97 C96.97 22.53, 127.72 22.81, 141.18 22.66 C154.64 22.52, 153.91 21.62, 157.55 21.09 C161.18 20.56, 161.89 20.44, 162.98 19.47 C164.07 18.5, 163.68 17.62, 164.1 15.27 C164.51 12.93, 165.16 8.21, 165.45 5.42 C165.75 2.63, 167.4 -0.12, 165.88 -1.48 C164.36 -2.84, 160.49 -2.2, 156.34 -2.76 C152.19 -3.33, 154.48 -4.55, 140.97 -4.84 C127.47 -5.14, 96.22 -4.66, 75.32 -4.53 C54.41 -4.39, 27.5 -4.15, 15.55 -4.03 C3.6 -3.91, 6.37 -4.65, 3.59 -3.81 C0.81 -2.96, -0.67 0.31, -1.12 1.05" stroke="#000000" stroke-width="1" fill="none"></path></g></g><mask></mask><g stroke-linecap="round"><g transform="translate(21.216005694330192 123.75679981105725) rotate(0 45.03415102045511 7.533485074470207)"><path d="M-1.01 -0.11 C10.77 -0.25, 56.34 -1.27, 71.15 -0.76 C85.97 -0.25, 84.32 1.62, 87.9 2.94 C91.47 4.25, 92.41 5.27, 92.59 7.12 C92.77 8.97, 92.24 12.9, 88.98 14.04 C85.72 15.19, 84.9 13.87, 73.02 13.98 C61.15 14.09, 29.97 14.85, 17.73 14.7 C5.48 14.55, 3.02 15.2, -0.46 13.09 C-3.93 10.98, -3.35 4.07, -3.13 2.04 C-2.9 0, 0.51 1.24, 0.89 0.88 M0.66 -1.22 C12.77 -1.23, 58.49 -0.07, 73.42 0.32 C88.34 0.71, 86.93 -0.11, 90.23 1.13 C93.52 2.37, 93.62 5.58, 93.2 7.77 C92.77 9.96, 90.88 12.86, 87.69 14.28 C84.5 15.69, 86.15 16.4, 74.06 16.27 C61.97 16.15, 27.69 14.1, 15.15 13.51 C2.6 12.93, 1.56 14.35, -1.22 12.74 C-4 11.13, -1.5 5.82, -1.55 3.84 C-1.6 1.87, -1.63 1.4, -1.54 0.88" stroke="#000000" stroke-width="1" fill="none"></path></g></g><mask></mask><g stroke-linecap="round"><g transform="translate(138.43156661755313 127.14887759147393) rotate(0 7.118388709705471 3.5248880682081563)"><path d="M-0.11 -0.86 C0.24 -1.46, -0.34 -4.5, 2.16 -4.65 C4.65 -4.8, 12.86 -3.35, 14.84 -1.78 C16.82 -0.21, 14.29 2.86, 14.04 4.79 C13.78 6.72, 15.26 8.66, 13.32 9.81 C11.38 10.96, 4.51 11.89, 2.38 11.7 C0.26 11.51, 0.99 10.31, 0.57 8.65 C0.16 6.99, 0.14 3.03, -0.1 1.74 C-0.35 0.44, -1.07 1.32, -0.9 0.89 M-1.63 1.31 C-0.91 0.9, 1.71 -2.83, 4.42 -3.68 C7.13 -4.52, 13.05 -5.38, 14.62 -3.76 C16.19 -2.13, 13.71 3.81, 13.83 6.07 C13.96 8.34, 17.08 8.99, 15.35 9.83 C13.62 10.66, 5.79 11.47, 3.46 11.1 C1.13 10.72, 2.14 9.25, 1.37 7.56 C0.61 5.88, -1.01 2.25, -1.13 0.98 C-1.26 -0.28, 0.68 0.43, 0.61 -0.03" stroke="#000000" stroke-width="1" fill="none"></path></g></g><mask></mask><g stroke-linecap="round"><g transform="translate(157.38753338212655 127.1257335552192) rotate(0 7.549104466802817 3.795901997234182)"><path d="M-0.86 -0.86 C-0.55 -1.17, -1.75 -1.57, 0.81 -1.98 C3.38 -2.39, 12.1 -4.35, 14.51 -3.33 C16.91 -2.3, 15.53 1.85, 15.24 4.15 C14.94 6.45, 14.59 9.26, 12.77 10.45 C10.94 11.64, 6.27 11.58, 4.27 11.31 C2.27 11.04, 1.6 10.2, 0.77 8.85 C-0.07 7.49, -0.76 4.5, -0.74 3.17 C-0.72 1.84, 0.91 1.43, 0.89 0.88 M0.89 1.3 C1.64 0.68, 0.76 -2.94, 2.96 -3.57 C5.16 -4.19, 11.99 -3.9, 14.11 -2.46 C16.22 -1.01, 15.58 2.94, 15.66 5.1 C15.74 7.26, 16.78 9.62, 14.58 10.51 C12.38 11.4, 4.61 10.93, 2.46 10.43 C0.31 9.93, 1.84 8.84, 1.67 7.5 C1.51 6.15, 1.82 3.61, 1.49 2.35 C1.15 1.1, 0.02 0.46, -0.32 -0.05" stroke="#000000" stroke-width="1" fill="none"></path></g></g><mask></mask><g stroke-linecap="round"><g transform="translate(11.642989053260521 150.3096952116424) rotate(0 82.95243335747705 8.316401936249576)"><path d="M-0.86 -1.07 C-0.6 1.37, 0.95 10.28, 1.45 13.83 C1.95 17.39, -0.64 19.23, 2.11 20.27 C4.86 21.31, 5.74 19.8, 17.93 20.07 C30.13 20.34, 54.83 21.63, 75.26 21.89 C95.69 22.15, 126.76 21.87, 140.53 21.62 C154.29 21.37, 154.17 20.67, 157.86 20.38 C161.54 20.1, 161.17 21.11, 162.64 19.93 C164.11 18.75, 166.11 16.08, 166.65 13.32 C167.2 10.56, 166.24 5.67, 165.9 3.37 C165.55 1.06, 165.81 0.65, 164.58 -0.52 C163.36 -1.69, 162.81 -2.74, 158.55 -3.65 C154.3 -4.57, 153.03 -5.71, 139.06 -6.01 C125.09 -6.32, 95.07 -5.6, 74.73 -5.49 C54.4 -5.37, 29.12 -5.48, 17.05 -5.32 C4.97 -5.15, 5.08 -5.55, 2.28 -4.51 C-0.52 -3.47, 0.76 0.1, 0.22 0.9 M0.89 0.98 C1.09 3.15, 0.43 9.22, 1.04 12.07 C1.65 14.93, 1.72 16.65, 4.56 18.1 C7.39 19.56, 5.93 20.03, 18.02 20.8 C30.12 21.57, 57.05 22.71, 77.12 22.72 C97.19 22.73, 124.87 20.92, 138.44 20.84 C152 20.77, 154.1 22.42, 158.5 22.29 C162.89 22.16, 163.64 21.25, 164.8 20.06 C165.96 18.86, 165.15 17.48, 165.44 15.13 C165.74 12.79, 166.64 8.97, 166.58 5.97 C166.52 2.97, 166.61 -1.26, 165.09 -2.88 C163.56 -4.5, 161.83 -3.63, 157.43 -3.77 C153.03 -3.91, 152.63 -3.39, 138.69 -3.74 C124.75 -4.08, 94 -5.48, 73.79 -5.82 C53.58 -6.16, 29.25 -6.21, 17.42 -5.77 C5.59 -5.33, 5.86 -3.88, 2.8 -3.18 C-0.25 -2.47, -0.6 -2.21, -0.91 -1.54" stroke="#000000" stroke-width="1" fill="none"></path></g></g><mask></mask><g stroke-linecap="round"><g transform="translate(21.216005694330192 150.672755738599) rotate(0 44.09054623385191 7.431418629728739)"><path d="M-1.07 1.03 C11.19 1.04, 57.64 -0.86, 72.7 -0.76 C87.77 -0.66, 86.23 0.26, 89.31 1.61 C92.39 2.96, 91.16 5.17, 91.19 7.34 C91.22 9.51, 92.3 13.43, 89.47 14.64 C86.65 15.85, 86.46 14.8, 74.23 14.61 C62 14.42, 28.49 13.6, 16.11 13.5 C3.73 13.39, 3.15 15.76, -0.07 13.97 C-3.29 12.18, -3.04 5.05, -3.22 2.78 C-3.4 0.51, -1.79 0.73, -1.15 0.36 M0.56 0.52 C12.8 0.74, 57.42 -0.05, 72.12 0.33 C86.81 0.71, 85.57 1.48, 88.73 2.78 C91.88 4.07, 91.11 6.04, 91.06 8.11 C91.02 10.18, 91.58 14.28, 88.44 15.19 C85.3 16.1, 84.26 13.54, 72.25 13.56 C60.23 13.59, 28.49 15.25, 16.34 15.34 C4.2 15.42, 2.37 16.43, -0.63 14.09 C-3.64 11.75, -1.63 3.64, -1.69 1.31 C-1.75 -1.03, -1.48 0.01, -0.99 0.09" stroke="#000000" stroke-width="1" fill="none"></path></g></g><mask></mask><g stroke-linecap="round"><g transform="translate(138.43156661755313 154.06483351901568) rotate(0 7.081804181066104 3.7750740928382243)"><path d="M1.03 0.69 C1.53 0.33, 0.08 -2.59, 2.16 -3.23 C4.25 -3.88, 11.5 -4.6, 13.52 -3.18 C15.54 -1.76, 14.2 2.92, 14.26 5.28 C14.33 7.65, 15.79 10.21, 13.92 11.02 C12.04 11.82, 5.43 10.41, 3.01 10.08 C0.58 9.75, -0.26 10.44, -0.63 9.03 C-1.01 7.63, 0.7 3.34, 0.78 1.64 C0.86 -0.05, -0.1 -0.98, -0.17 -1.15 M0.1 0.01 C1.06 -0.63, 2.34 -4.8, 4.43 -5.18 C6.51 -5.55, 10.97 -3.62, 12.6 -2.23 C14.22 -0.84, 14.18 0.85, 14.18 3.16 C14.18 5.48, 14.23 10.15, 12.61 11.67 C10.98 13.19, 6.59 12.88, 4.42 12.29 C2.24 11.71, 0.24 10.06, -0.47 8.15 C-1.17 6.24, -0.15 2.12, 0.21 0.84 C0.58 -0.43, 1.55 0.58, 1.73 0.52" stroke="#000000" stroke-width="1" fill="none"></path></g></g><mask></mask><g stroke-linecap="round"><g transform="translate(157.38753338212655 154.04168948276094) rotate(0 7.854787756857149 4.303456111667629)"><path d="M0.69 -0.86 C1.24 -1.58, 0.16 -2.93, 2.23 -3.31 C4.3 -3.68, 10.86 -4.44, 13.11 -3.1 C15.36 -1.76, 15.58 2.39, 15.73 4.75 C15.87 7.11, 16.15 10.18, 13.97 11.07 C11.79 11.97, 4.79 10.33, 2.66 10.1 C0.52 9.88, 1.74 10.76, 1.16 9.73 C0.57 8.7, -0.44 5.47, -0.83 3.91 C-1.21 2.35, -1.39 0.92, -1.15 0.36 M-0.41 1.31 C0.11 1.28, -1.21 -1.36, 1.46 -1.93 C4.13 -2.5, 13.14 -3.44, 15.63 -2.11 C18.12 -0.79, 16.89 3.75, 16.41 6.01 C15.93 8.28, 14.89 10.42, 12.76 11.46 C10.64 12.5, 6.02 12.69, 3.66 12.25 C1.3 11.81, -1.01 10.3, -1.4 8.84 C-1.78 7.38, 1.07 5.09, 1.35 3.48 C1.62 1.87, 0.17 -0.32, 0.23 -0.84" stroke="#000000" stroke-width="1" fill="none"></path></g></g><mask></mask><g transform="translate(77.44361697809484 210) rotate(0 30.199966430664062 12)"><text x="0" y="0" font-family="Virgil, Segoe UI Emoji" font-size="20px" fill="#000000" text-anchor="start" style="white-space: pre;" direction="ltr" dominant-baseline="text-before-edge">server</text></g><g stroke-linecap="round"><g transform="translate(854.4436170080942 62.42861535015294) rotate(0 -308.73823431032326 -1.9219772353151825)"><path d="M0.31 0.34 C-102.55 -0.25, -514.76 -3.58, -617.78 -4.19 M-0.99 -0.52 C-103.41 -0.93, -513.08 -2.81, -615.48 -3.05" stroke="#000000" stroke-width="1" fill="none"></path></g><g transform="translate(854.4436170080942 62.42861535015294) rotate(0 -308.73823431032326 -1.9219772353151825)"><path d="M-586.68 -14.51 C-595.5 -12.06, -601 -8.65, -614.11 -3.58 M-587.94 -13.54 C-594.93 -10.54, -601.69 -7.03, -614.49 -3.21" stroke="#000000" stroke-width="1" fill="none"></path></g><g transform="translate(854.4436170080942 62.42861535015294) rotate(0 -308.73823431032326 -1.9219772353151825)"><path d="M-586.75 6.01 C-595.45 3.42, -600.93 1.8, -614.11 -3.58 M-588.01 6.98 C-595.15 4.64, -601.9 2.83, -614.49 -3.21" stroke="#000000" stroke-width="1" fill="none"></path></g></g><mask></mask><g stroke-linecap="round"><g transform="translate(247.44361697809484 124) rotate(0 299.75196312152787 2.2234310086723212)"><path d="M0.53 -1.05 C100.46 -0.53, 500.42 3.09, 600.15 3.98 M-0.65 1.01 C99.09 1.66, 498.97 4.71, 599.28 5.5" stroke="#000000" stroke-width="1" fill="none"></path></g><g transform="translate(247.44361697809484 124) rotate(0 299.75196312152787 2.2234310086723212)"><path d="M569.26 15.79 C580.73 10.1, 591.04 10.05, 597.56 5.35 M570.55 16.01 C578.98 12.29, 585.86 10.43, 598.42 6.06" stroke="#000000" stroke-width="1" fill="none"></path></g><g transform="translate(247.44361697809484 124) rotate(0 299.75196312152787 2.2234310086723212)"><path d="M569.41 -4.73 C580.98 -3.28, 591.23 3.8, 597.56 5.35 M570.7 -4.51 C579.21 -2.95, 586.05 0.47, 598.42 6.06" stroke="#000000" stroke-width="1" fill="none"></path></g></g><mask></mask><g stroke-linecap="round"><g transform="translate(844.443616978095 229) rotate(0 -304.456388918683 -1.446573657775275)"><path d="M0.9 -0.31 C-100.91 -0.45, -508.06 -0.83, -609.81 -0.99 M-0.09 -1.51 C-101.6 -1.96, -505.75 -2.29, -607.52 -2.59" stroke="#000000" stroke-width="1" fill="none"></path></g><g transform="translate(844.443616978095 229) rotate(0 -304.456388918683 -1.446573657775275)"><path d="M-579.82 -14.15 C-588.5 -9.69, -599.85 -5.92, -608.75 -2.96 M-578.85 -13.75 C-586.73 -8.81, -595.08 -7, -606.61 -1.94" stroke="#000000" stroke-width="1" fill="none"></path></g><g transform="translate(844.443616978095 229) rotate(0 -304.456388918683 -1.446573657775275)"><path d="M-579.86 6.37 C-588.5 2.94, -599.84 -1.19, -608.75 -2.96 M-578.88 6.77 C-586.81 5.95, -595.15 2, -606.61 -1.94" stroke="#000000" stroke-width="1" fill="none"></path></g></g><mask></mask><g transform="translate(917.443616978095 55) rotate(0 71.08998107910156 12)"><text x="0" y="0" font-family="Virgil, Segoe UI Emoji" font-size="20px" fill="#000000" text-anchor="start" style="white-space: pre;" direction="ltr" dominant-baseline="text-before-edge">TCP三次握手后</text></g><g transform="translate(242.44361697809472 10) rotate(0 223.51992797851562 12)"><text x="0" y="0" font-family="Virgil, Segoe UI Emoji" font-size="20px" fill="#000000" text-anchor="start" style="white-space: pre;" direction="ltr" dominant-baseline="text-before-edge">Client 请求升级加密协议，发送 Client RSA 公钥</text></g><g transform="translate(243.97364627496984 82) rotate(0 305.5498657226563 12)"><text x="0" y="0" font-family="Virgil, Segoe UI Emoji" font-size="20px" fill="#000000" text-anchor="start" style="white-space: pre;" direction="ltr" dominant-baseline="text-before-edge">Server 发送Server RSA公钥、用 clinet RSA公钥加密的 AES 密钥</text></g><g stroke-linecap="round"><g transform="translate(241.37261106093513 257.6773407587888) rotate(0 304.49518605357315 0.19171010678888933)"><path d="M0.24 0.24 C101.96 0.5, 508.43 0.96, 610.08 1.07 M-1.09 -0.68 C100.49 -0.71, 507.39 -0.58, 609.14 -0.66" stroke="#000000" stroke-width="1" fill="none"></path></g><g transform="translate(241.37261106093513 257.6773407587888) rotate(0 304.49518605357315 0.19171010678888933)"><path d="M581.35 9.62 C590.18 6.77, 597.82 3.63, 607.41 -2.23 M581.56 10.41 C590.29 6.74, 598.02 3.69, 608.32 -1" stroke="#000000" stroke-width="1" fill="none"></path></g><g transform="translate(241.37261106093513 257.6773407587888) rotate(0 304.49518605357315 0.19171010678888933)"><path d="M581.35 -10.9 C590.09 -7.97, 597.73 -5.33, 607.41 -2.23 M581.56 -10.11 C590.22 -7.6, 597.96 -4.47, 608.32 -1" stroke="#000000" stroke-width="1" fill="none"></path></g></g><mask></mask><g transform="translate(249.44361697809484 149) rotate(0 249.3799896240235 12)"><text x="0" y="0" font-family="Virgil, Segoe UI Emoji" font-size="20px" fill="#000000" text-anchor="start" style="white-space: pre;" direction="ltr" dominant-baseline="text-before-edge">用对方公钥或者AES密钥加密数据；支持流式或者报文式</text></g><g transform="translate(247.44361697809484 180) rotate(0 258.6199340820313 12)"><text x="0" y="0" font-family="Virgil, Segoe UI Emoji" font-size="20px" fill="#000000" text-anchor="start" style="white-space: pre;" direction="ltr" dominant-baseline="text-before-edge">双方都可以主动传送数据，支持长链接（类似websocket）</text></g><g transform="translate(965.443616978095 228) rotate(0 25.629974365234375 12)"><text x="0" y="0" font-family="Virgil, Segoe UI Emoji" font-size="20px" fill="#000000" text-anchor="start" style="white-space: pre;" direction="ltr" dominant-baseline="text-before-edge">client</text></g></svg>