<svg version="1.1" xmlns="http://www.w3.org/2000/svg" viewBox="0 0 912.5641155392103 491.60983326751557" width="912.5641155392103" height="491.60983326751557">
  <!-- svg-source:excalidraw -->
  
  <defs>
    <style class="style-fonts">
      @font-face {
        font-family: "Virgil";
        src: url("https://excalidraw.com/Virgil.woff2");
      }
      @font-face {
        font-family: "Cascadia";
        src: url("https://excalidraw.com/Cascadia.woff2");
      }
    </style>
  </defs>
  <rect x="0" y="0" width="912.5641155392103" height="491.60983326751557" fill="#ffffff"></rect><g stroke-linecap="round" transform="translate(659.4670397452486 29.870497275385333) rotate(0 54.34559701502826 36.2303980100188)"><path d="M0 0 C0 0, 0 0, 0 0 M0 0 C0 0, 0 0, 0 0 M-0.21 6.31 C1.86 4.16, 3.69 1.5, 4.51 0.41 M-0.31 6.7 C1.69 4.31, 3.53 2.22, 4.65 0.17 M1.46 11.19 C3.69 10.46, 5.2 6.22, 10.47 -0.08 M0.5 12.28 C3.75 6.63, 8.72 3.02, 11.29 0.26 M0.13 17.84 C4.6 10.67, 10.52 6.65, 15 -1.09 M-0.14 19.4 C4.17 13.93, 9.05 9.49, 16.34 -0.63 M-1.52 24.49 C6.4 16.9, 8.14 15.08, 22.41 0.63 M0.67 23.38 C6.93 15.41, 15.26 7.05, 22.07 -0.13 M-1.82 29.24 C11.01 18.45, 19.75 8.96, 28.01 -0.89 M-0.03 30.19 C5.28 24.72, 12.66 17.83, 25.81 -0.05 M0.12 35.54 C13.98 23.2, 23.52 9.64, 30.04 1.08 M-0.99 35.98 C11.56 23.48, 24.9 8.5, 32.82 0.53 M1.97 42.05 C7.41 33.49, 18.37 25.26, 37.55 1.8 M0.22 42.97 C12 28.92, 21.72 16.84, 37.08 -0.03 M1.35 50.69 C11.2 37.79, 20.02 27.52, 42.87 -1.16 M-0.85 48.29 C12.08 33.91, 24.58 19.68, 43.44 -0.41 M-0.32 53.23 C16.66 36.64, 31.77 18.99, 45.53 -0.05 M0.01 54.32 C10.19 43.55, 18.44 33.29, 48.32 0.37 M-1.95 59.06 C20.63 36.29, 40.36 15.94, 52.69 0.78 M0.29 61.31 C16.55 42.79, 32.95 23.36, 53.8 0.42 M1.07 65.78 C15 51.3, 28.7 34.88, 59.09 0.81 M0.26 67.68 C16.98 49.25, 33.33 28.33, 58.33 -0.3 M0 71.26 C16.09 53.86, 30.19 37.46, 63.49 1.06 M0.92 72.9 C16.24 54.01, 33.65 34.42, 62.88 -0.49 M3.97 72.93 C16.7 56.55, 30.42 42.97, 68.59 -0.05 M4.86 72.54 C29.55 46.66, 51.87 20.24, 69.57 1.14 M10.66 74.16 C23.39 57.14, 38.09 40.81, 73.49 -0.9 M11.69 73.47 C34.24 44.83, 58.33 18.37, 73.84 -0.56 M15.25 71.75 C29.68 58.96, 42.14 43.55, 77.61 -0.83 M16.68 73.08 C37.33 48.75, 56.97 25.87, 79.13 -0.56 M21.75 73.02 C37.03 52.96, 52.46 37.91, 85.12 1.62 M20.86 73.18 C41.02 50.58, 61.88 25.15, 84.98 -0.08 M27.4 73.6 C46.72 48.17, 66.27 27.11, 88.93 0.58 M27.11 71.59 C47.12 50.68, 65.82 29.04, 89.74 0 M30.67 73.31 C46.73 57.57, 60.56 39.84, 95.04 0.61 M32.86 72.72 C52.46 48.19, 74.58 23.39, 94.7 -1.24 M39.67 73.87 C58.53 45.2, 80.18 20.93, 102.57 0.57 M38.25 73.19 C58.2 47.11, 80.63 23.59, 100.77 -0.2 M44.08 74.8 C55.03 54.69, 73.12 40.49, 108.12 -0.65 M42.75 72.4 C63.61 49.37, 83.78 25.84, 106.59 -1.12 M47.58 71.19 C61.42 57.97, 75.53 41.89, 108.46 1.3 M47.36 72.12 C63.38 55.81, 78.44 38.97, 109.92 1.96 M51.82 73.54 C70.47 54.97, 84.5 36.1, 108.9 5.95 M53.24 73.12 C73.04 51.12, 93.87 27.84, 109.78 6.85 M60.83 73.51 C77.14 51.67, 94.95 29.76, 111.16 14.8 M59.85 72.72 C77.65 49.09, 98.85 26.51, 110.97 12.73 M64.97 71.83 C73.89 61.51, 82.41 51.55, 111.29 17.22 M63.65 73.41 C77.84 57.43, 92.22 40.01, 109.76 19.8 M69.36 72.03 C79.19 60.47, 91.52 46.13, 111.54 25.71 M70.24 72.44 C83.11 57.01, 97.38 42.5, 110.41 25.38 M73.83 72.3 C85.74 58.08, 97.29 45.33, 108.12 30.5 M74.98 72.41 C84.14 60.32, 93.98 48.88, 110.78 32.21 M80.68 72.01 C86.85 63.05, 97.27 53.91, 110.47 39.56 M78.55 73.6 C90.21 60.6, 100.42 48.2, 110.17 37.33 M85.91 71.82 C90.56 64.94, 98.25 58.99, 110.44 44.7 M84.84 72.85 C91.37 66.08, 97.48 58.5, 110.31 43.92 M88.46 71.71 C98.37 63.82, 104.96 58.84, 111.43 50.88 M89.92 73.36 C97.37 66.71, 101.79 58.23, 109.17 51.37 M95.94 71.55 C102.01 68.14, 108.13 58.54, 109.57 54.25 M96.51 72.08 C99.62 68.39, 103.43 63.96, 109.94 55.15 M102.08 72.97 C104.02 71.05, 107.26 66.57, 109.31 62.31 M101.39 73.19 C102.69 70.13, 105.44 68.83, 110.64 61.89 M106.87 72.15 C106.68 71.31, 107.76 71.28, 110.17 68.12 M106.27 72.78 C107.6 71.02, 109.23 69.75, 110.59 68.23" stroke="#ced4da" stroke-width="0.5" fill="none"></path><path d="M-1.36 0.71 C28.9 0.86, 56.06 1.78, 109.98 1.35 M-0.38 -0.2 C34.91 -0.89, 67.15 -1.01, 108.27 0.46 M107.1 1.37 C111.21 24.87, 110.49 51.01, 109.14 71.67 M108.6 -0.45 C109.27 26.9, 107.74 54.35, 108.59 71.99 M108.84 71.92 C85.45 73.27, 64.16 73.57, 0.88 74.12 M109.37 71.63 C70.42 71.79, 30.45 72.41, -0.92 72.58 M0.02 71.93 C-0.66 43.4, 0.11 17.03, -1.4 1.06 M-0.48 72.15 C-0.55 43.65, -0.5 15.73, 0.96 0.4" stroke="#000000" stroke-width="1" fill="none"></path></g><g stroke-linecap="round"><g transform="translate(659.5986014174424 102.82858008492497) rotate(0 54.481376505138655 21.17443692131235)" fill-rule="evenodd"><path d="M0 0 C0 0, 0 0, 0 0 M0 0 C0 0, 0 0, 0 0 M-27.41 39.81 C-17.75 23.37, -2.22 11.75, 5.69 1.44 M-28.52 37.41 C-16.9 25.6, -5.78 13.61, 4.92 0.99 M-26.04 41.92 C-18.48 33.09, -9.74 26.06, 9.45 -1.68 M-25.09 40.05 C-15.87 32.46, -8.12 21.76, 10.29 0.83 M-23.77 45.78 C-11.56 31.15, -0.67 18.8, 16.8 1.86 M-23.33 43.82 C-10.44 32.09, 0.02 18.83, 16.25 -0.41 M-17.27 42.98 C-1.66 28.55, 14.23 10.6, 22.8 0.08 M-16.34 44.63 C-2.79 26.26, 12.71 10.32, 20.97 -0.79 M-10.03 45.66 C-0.39 31.41, 11.89 17.99, 25.23 0.23 M-12.43 43.29 C-3.38 33.21, 5.81 24.86, 25.98 0.61 M-7.5 44.63 C7.08 29.09, 20.58 11.6, 31.61 -2.07 M-6.4 44.3 C6.88 28.08, 20.66 14.48, 32.04 0.58 M-3.08 45.61 C11.44 29.22, 28.32 10.1, 37.83 0.4 M-0.83 43.81 C8.05 33.84, 16.04 24.67, 37.47 -0.27 M2.89 44.37 C15.78 30.86, 26.85 19.25, 43.15 -0.41 M4.79 43.49 C13.39 33.92, 19.54 25.65, 42.04 -0.67 M7.72 43.97 C18.6 30.79, 30.35 20.53, 48.77 -0.55 M9.36 43.47 C21.19 30.76, 32.19 16.43, 47.22 -0.71 M14.77 42.66 C27.35 27.73, 42.65 12.61, 52.95 1.01 M14.38 44.97 C23.46 34.84, 31.93 25.13, 54.14 -1 M21.28 43.31 C34.65 27.6, 48.67 9.88, 57.48 1.68 M20.59 43.48 C30.26 30.91, 42.07 18.09, 57.82 -0.71 M24.25 44.9 C41.24 27.7, 55.52 9.45, 62.83 0.34 M25.58 44.91 C38.01 28.76, 51.94 13.76, 63.11 -0.73 M30.8 44.39 C43.74 27.13, 61.48 10.25, 70.66 0.59 M30.97 43.22 C44.15 29.65, 54.6 15.78, 68.96 0.33 M36.77 43.98 C46.15 29.76, 60.02 15.76, 74.91 -0.06 M34.75 44.37 C44.77 33.6, 54.19 23.99, 74.33 -1.04 M41.76 44.22 C51.43 33.4, 59.3 21.67, 80.32 0.93 M41.17 43.18 C55.76 26.94, 70.12 9.89, 78.47 0.69 M47.7 43.27 C60.23 24.51, 77.08 10.76, 85.56 0.4 M47.02 43.29 C54.47 33.87, 64.35 22.95, 84.79 -0.98 M53.92 42.02 C64.01 29.89, 79.95 14.67, 89.73 0.64 M51.51 44.01 C64.09 29.75, 76.32 17.03, 89.25 -0.73 M55.69 43.34 C66.67 33.96, 74.92 22.55, 95.45 -1.45 M56.61 44.28 C68.96 31.51, 80.84 18.11, 96.1 -0.45 M63.32 45.21 C77.79 26.66, 92.07 9.5, 99.44 0.89 M62.9 43.5 C71.59 35.38, 78.98 24.34, 100.34 0.61 M68.67 43.98 C78.2 31.27, 87.62 20.99, 107.54 1.4 M67.88 43.55 C81.81 27.58, 96.8 10.73, 105.47 -1.21 M72.28 43.46 C81.86 32.07, 91.84 24.82, 107.98 1.57 M73.86 43.58 C84.91 31.51, 94.54 18.22, 110.57 1.41 M77.86 42.2 C91.31 29.57, 102 18.93, 113.1 4.74 M78.27 44 C86.51 35.13, 95.67 25.1, 112.77 4.65 M83.41 42.63 C93.56 30.27, 105.17 18.75, 113.86 7.33 M83.52 43.31 C94.58 29.71, 106.28 18.34, 115.56 7.5 M87.75 42.25 C97.92 33.44, 107.93 24.27, 119.63 11.76 M89.34 44.12 C96.39 34.96, 104.05 26.03, 117.4 10.39 M93.59 42.82 C100.87 36.12, 109.08 27.73, 121.39 12.44 M94.62 43.91 C103.79 33.72, 112.17 23.46, 120.61 13.83 M98.11 45.57 C102.53 40.27, 109.89 34.67, 123.54 17.14 M99.76 45.07 C106.35 36.27, 111.14 29.15, 124.03 17.64 M103.99 44.34 C111.05 40.2, 111.87 33.29, 123.62 19.71 M104.51 43.71 C112.97 34.62, 120.73 25.53, 124.53 20.27 M110 44.82 C118.38 37.84, 123.02 27.85, 128.24 21.52 M110.32 43.64 C113.89 39.24, 119.99 34.54, 127.64 21.98 M114.06 41.71 C118.67 37.63, 125.93 33.11, 130.82 26.9 M116.16 43.21 C120.26 38.67, 126 32.96, 131.2 27.04 M119.82 45.81 C122.19 42.58, 127.55 39.04, 133.42 29.78 M120.89 43.31 C122.8 41.3, 125.21 38.4, 133.81 30.06 M127.24 42.17 C130.94 40.61, 133.24 34.88, 136.49 33 M126.95 43.94 C129.24 40.19, 132.3 38.19, 136.55 32.29 M133.43 43.34 C133.76 40.68, 136.61 39.05, 138.8 35.27 M132.75 42.05 C133.82 41.18, 135.31 39.36, 138.24 36.06" stroke="#ced4da" stroke-width="0.5" fill="none"></path><path d="M0.71 0.53 C-5.76 7.03, -11.44 16.91, -28.84 36.5 M-0.2 0.85 C-7.5 6.98, -14.33 15.61, -29.73 36.76 M-29.63 37.03 C-28.29 39, -25.91 40.89, -24.81 42.74 M-30.37 36.59 C-28.86 37.49, -27.32 39.24, -24.68 41.74 M-25.03 41.67 C22.83 43.06, 70.37 42.88, 134.63 43.23 M-25.32 42.55 C35.3 40.21, 96.6 40.12, 133.1 42.85 M132.75 42.14 C134.56 40.11, 137.22 36.83, 139.32 36.94 M132.85 42.13 C134.89 39.93, 137.15 38.05, 139.05 36.11 M139.34 36.46 C130.69 24.19, 120.62 12.81, 109.3 0.68 M138.95 37 C131.07 27.43, 124.58 19.07, 108.47 0.96 M108.46 0.02 C81.45 -0.53, 53.25 -1.12, 0.14 1.31 M109.44 0.18 C69.6 -0.14, 30.43 -0.97, -0.47 -0.88 M0 0 C0 0, 0 0, 0 0 M0 0 C0 0, 0 0, 0 0" stroke="#000000" stroke-width="1" fill="none"></path></g></g><mask></mask><g stroke-linecap="round" transform="translate(662.060156195215 32.59583376077853) rotate(0 51.4785780574266 33.30966815480542)"><path d="M0.74 -1.4 L103.41 0.23 L104.88 66.77 L1.83 67.37" stroke="none" stroke-width="0" fill="#fff"></path><path d="M0.53 0.84 C29.99 1.39, 62.63 0.99, 103.23 -1.54 M0.85 -0.8 C30.8 -0.71, 63.13 0.66, 103.49 0.77 M104.92 -0.71 C103.67 24.13, 102.88 47.73, 104.49 65.8 M103.84 -0.4 C102.24 22.15, 102.8 44.32, 102.05 66.62 M102.51 66.71 C66.32 66.73, 28.43 67.99, 1.12 68.33 M103.4 65.73 C69.22 65.5, 36.21 65.89, 0.74 67.61 M0.06 64.66 C0.83 50.04, -1.41 36.97, 1.71 1.63 M0.04 65.75 C0.41 48.39, 1.28 32.26, -0.3 0.31" stroke="#000000" stroke-width="1" fill="none"></path></g><g transform="translate(689.8787534787158 53.905501915583955) rotate(0 23.65998077392578 12)"><text x="23.65998077392578" y="0" font-family="Virgil, Segoe UI Emoji" font-size="20px" fill="#000000" text-anchor="middle" style="white-space: pre;" direction="ltr" dominant-baseline="text-before-edge">1528</text></g><g stroke-linecap="round"><g transform="translate(701.7358374236038 120.44649230043228) rotate(0 11.585231424180392 6.267718657777266)" fill-rule="evenodd"><path d="M0.12 -0.23 L-6.01 12.36 L29.59 11.68 L22.97 0.14 L1.31 1.26" stroke="none" stroke-width="0" fill="#fff" fill-rule="evenodd"></path><path d="M0.57 -0.46 C-0.17 3.69, -1.85 5.8, -7.08 12.19 M-0.54 -0.66 C-2.22 2.94, -2.88 6.74, -5.52 12.51 M-6.74 13.32 C1.81 12.17, 9.13 13.26, 29.37 12.8 M-6.43 11.42 C4.26 11.66, 14.57 10.86, 30.19 12.74 M30.25 12.8 C28.63 8.95, 27.63 5.4, 25.31 0.27 M29.59 11.52 C27.89 7.04, 25.93 3.71, 24.82 -0.47 M22.19 0.83 C15.66 -1.4, 10.68 1.72, 1.63 -0.78 M23.29 0.09 C17.2 0.97, 12.36 -0.29, 0.31 0.37 M0 0 C0 0, 0 0, 0 0 M0 0 C0 0, 0 0, 0 0" stroke="#000000" stroke-width="1" fill="none"></path></g></g><mask></mask><g stroke-linecap="round"><g transform="translate(629.2750414035662 138.56169130544174) rotate(0 84.3696300125572 0.2891334569555113)"><path d="M-0.68 1.75 C58.02 0.64, 113.72 -2.25, 169.25 -0.75 M-0.98 -0.91 C46.97 1.81, 95.31 2.12, 169.72 -0.8" stroke="#000000" stroke-width="1" fill="none"></path></g></g><mask></mask><g stroke-linecap="round" transform="translate(42.0564744078863 348.51381057567255) rotate(0 54.345597015028204 36.2303980100188)"><path d="M0 0 C0 0, 0 0, 0 0 M0 0 C0 0, 0 0, 0 0 M-0.49 6.96 C1.36 5.28, 2.38 3.7, 5.04 0.35 M-0.26 6.77 C1.86 4.67, 3.05 2.25, 4.62 0.01 M-0.98 13.13 C3.24 7.42, 5.27 3.12, 11.21 -1 M-0.39 12.35 C4.89 7.82, 8.75 3.53, 10.57 0.69 M0.36 18.63 C7.21 11.36, 11.02 5.3, 16.53 1.31 M0 17.48 C3.14 13.76, 6.41 9.45, 15.47 1.26 M-0.34 24.46 C8.08 15.6, 12.72 7.99, 21.76 1.26 M-0.17 24.02 C7.95 14.14, 15.97 6.46, 20.65 0.72 M0.8 30.28 C8.48 19.19, 18.72 7.3, 24.98 -0.98 M-0.5 29.5 C7.43 21.53, 15.06 13.45, 25.27 -0.61 M0.88 37.79 C11.4 20.59, 24.66 8.07, 32.04 -0.8 M-0.34 37.87 C8.34 26.99, 16.56 17.28, 31.65 0.34 M1.75 44.46 C13.72 26.69, 22.66 15.76, 35.23 1.92 M-0.21 42.8 C8.82 33.42, 15.22 24.4, 37.63 -0.49 M-0.13 46.97 C9.6 39.58, 18.92 29.08, 44.36 -0.11 M-0.24 49.8 C12.07 35.55, 23.03 21.62, 42.4 0.58 M0.74 55.12 C16.26 33.98, 35.02 11.75, 49.34 1.68 M1.05 53.9 C10.2 43.97, 22.28 31.3, 46.84 0.92 M1.41 59.05 C20.53 36.2, 40.74 12.45, 51.18 0.86 M-0.93 61.55 C12.83 46.65, 25.05 32.64, 53.36 0.43 M0.94 67.15 C21.83 42.92, 42.1 18.26, 56.65 -0.81 M0.37 68.26 C21.7 43.01, 41.47 19.52, 58.28 -0.45 M-1.79 73.53 C14.51 53.01, 32.21 38.37, 65.23 -0.15 M0.28 72.75 C22.73 46.33, 44.05 20.75, 63.61 0.04 M5.68 72.63 C30.25 44.6, 54.14 16.09, 67.78 -1.44 M5.37 73.36 C26.39 48.96, 45.62 26.27, 69.45 0.98 M10.76 73.07 C24.76 57.73, 38.28 44.85, 73.51 0.83 M10.71 72.57 C31.22 47.18, 53.27 23.66, 73.82 -0.35 M15.36 72.42 C32.99 52.89, 48.89 35.83, 80.62 1.11 M16.07 73.46 C38.04 48.13, 57.34 24.89, 78.97 -0.57 M21.84 73.71 C33.46 56.55, 47.57 40.14, 83.32 -0.01 M21.77 73 C35.13 55.84, 50.76 39.55, 85.27 0.69 M28.07 70.6 C52.38 45.02, 75.31 16.24, 90.37 -0.61 M26.47 72.91 C49.76 44.54, 72.58 19.81, 89.54 0.75 M34.01 74.6 C51.49 51.45, 72.26 25.42, 96.22 -0.27 M31.51 73.58 C54.47 47.9, 76.7 22.51, 94.88 -1.29 M36.75 72.21 C53.03 55.59, 67.7 40.02, 99.49 -0.85 M36.78 72.96 C61.3 43.77, 87.33 14.66, 101.01 -0.56 M41.1 72.14 C61.73 54.44, 76.34 34.38, 106.08 -1.33 M43.05 72.5 C64.46 46.93, 86.48 22.63, 106.13 0.4 M46.63 70.49 C61.98 57.97, 74.91 43.91, 110.4 2.9 M47.82 72 C70.45 47.81, 90.52 24.43, 109.98 1.15 M54.24 73.94 C73.85 47.68, 96.49 24.9, 110.46 5.2 M53.65 73.58 C75.65 47.26, 98.35 21.25, 109.6 8.14 M57.23 72.92 C75.79 52.77, 91.31 35.99, 110.27 13.88 M58.03 72.54 C72.49 57.25, 86.85 39.71, 109.63 13.7 M63.83 72.82 C82.64 54.35, 100.78 33.36, 112.42 17.37 M63.67 73.29 C80.9 53.17, 98.23 33.88, 109.62 18.89 M68.32 71.16 C78.11 64.89, 87.35 53.08, 108.58 26.95 M70.43 72.25 C81.81 59.95, 91.79 45.79, 110.31 24.97 M73.54 72.82 C87.82 58.84, 102.26 42.73, 109.91 30.67 M73.57 73.74 C83.36 61.73, 91.54 52.68, 110.82 32.99 M81.33 71.89 C85.68 65.16, 94.54 57.69, 108.92 36.76 M79.02 73.67 C89.41 61.88, 98.85 50.07, 110.27 38 M86.35 71.21 C89.36 67.26, 95.96 61.31, 111.25 43.1 M84.93 73.67 C95 61.75, 104.68 49.88, 110.44 44.18 M91.93 71.72 C98.85 64.07, 103.55 55.29, 111.5 49.9 M90.37 72.25 C95.06 68.08, 98.83 63.1, 109.24 50.24 M94.49 72.47 C102.24 66.82, 106.88 61.22, 109.03 57.13 M95.44 73.47 C100.6 66.74, 106.11 61.01, 109.39 56.61 M100.31 72.13 C104.62 69.51, 107.25 65.97, 109.85 63.51 M100.72 73.59 C103.26 69.64, 105.94 68.03, 110 61.83 M106.16 73.15 C107.75 71.58, 108.85 70.38, 109.9 67.69 M106.28 72.51 C107.78 71.27, 109 69.85, 110.21 68.33" stroke="#ced4da" stroke-width="0.5" fill="none"></path><path d="M1.76 0.98 C33.03 2.14, 68.97 0.09, 107.95 -2 M-0.74 0.89 C39.62 0.96, 78.95 1.26, 108.29 0.55 M108.08 0.49 C107.72 17.45, 108.1 33.14, 109.63 70.94 M109 0.49 C108.99 23.06, 108.52 44.82, 109.27 72.55 M110.43 72.15 C85.73 72.44, 60.88 72.14, -0.43 74.36 M108.59 73.06 C80.69 73.81, 54.52 72.71, 0.36 72.25 M-1.38 72.38 C-1.24 49.99, -1.84 30.26, -1.13 0.48 M-0.83 71.92 C0.41 45.69, 0.35 17.72, -0.36 0.63" stroke="#000000" stroke-width="1" fill="none"></path></g><g stroke-linecap="round"><g transform="translate(42.18803608008011 421.4718933852122) rotate(0 53.47823922978904 20.80154959816099)" fill-rule="evenodd"><path d="M0 0 C0 0, 0 0, 0 0 M0 0 C0 0, 0 0, 0 0 M-27.44 39.12 C-18.54 25.81, -8.56 16.16, 6.32 1.78 M-27.88 38.18 C-16.49 24.24, -2.76 8.99, 5.77 1.2 M-25 38.96 C-15.83 28.85, -7.32 19.06, 9.36 -0.53 M-25.78 40.63 C-18.18 33.02, -10.83 23.53, 9.72 0.81 M-21.52 43.2 C-15.1 33.01, -3.95 22.28, 14.92 -0.21 M-21.44 44 C-10.11 29.41, 2.51 15.76, 16.06 0.61 M-14.85 45.01 C-9.25 30.66, 3.19 19.9, 22.92 -1.74 M-16.52 44.35 C-6.15 30.76, 4.54 20.26, 20.51 -0.96 M-13.75 44.62 C-0.93 33.58, 8.79 23.14, 26.28 -0.25 M-10.92 44.95 C2.26 28.16, 15.77 11.69, 26.96 1.06 M-5.6 42.05 C6.55 28.22, 17.57 16.01, 33.35 -1.72 M-6.82 42.77 C3.18 34.94, 10.47 24.16, 32.58 0.73 M-3.09 44.01 C7.8 31.71, 17.8 18.03, 37.91 -1.2 M-0.58 44.19 C6.14 35.82, 13.73 26.85, 37.48 0.8 M4.26 45.61 C18.73 27.87, 32.74 7.77, 41.53 1.04 M5.37 44.47 C14.88 30.96, 26 19.36, 41.88 -0.69 M9.98 42.27 C16.38 34.46, 28.63 25.26, 47.56 1.32 M9.2 44.46 C22.8 27.22, 37.05 11.91, 47.75 1.2 M14.47 44.22 C29.25 27.13, 43.42 11.44, 51.56 0.33 M15.2 44.87 C28.01 27.95, 42.63 13.57, 53.98 -1.17 M20.19 44.56 C27.95 35.86, 37.99 24.15, 59.21 1 M19.69 43.13 C32.75 27.99, 47.67 12.32, 58.03 -0.29 M24.92 45.41 C37.15 29.96, 51.98 14.36, 64.77 0.24 M25.96 45.25 C33.54 33.53, 43.09 22.29, 63.09 -1.07 M31.49 42.34 C41.19 29.8, 51.71 16.24, 69.03 -1.19 M30.78 43.14 C43.57 29, 57.2 14.37, 69.74 0.91 M33.77 46.28 C48.88 29.94, 60.73 13.62, 73.71 1.1 M36.08 44.24 C47.92 28.64, 63.29 12.95, 75.08 -0.13 M43.05 43.32 C53.05 32.2, 59.98 20.64, 79.44 0.98 M42.03 44.06 C50.58 34.18, 59.4 22.35, 78.42 -0.5 M46.04 44.46 C57.31 31.95, 69.74 18.48, 84.14 1.56 M46.8 43.84 C60.99 28.32, 75.23 10.49, 84.43 -0.49 M51.26 45.51 C66.76 27.81, 80.02 14.13, 89.04 1.04 M51.62 43.08 C60.64 32.22, 71.02 22.37, 90.78 -0.74 M54.99 44.85 C71.36 29.01, 86.36 13.62, 97.04 0.53 M56.5 45.18 C67.53 31.62, 79.48 18.94, 95.29 0.32 M63.72 43.22 C70.4 34.6, 80.47 23.03, 98.69 1.81 M63.36 43.98 C73.74 31.6, 84.34 17.31, 101.63 0.1 M68.08 45.62 C78.9 30.97, 93.02 14.92, 106.62 -0.79 M67.7 43.45 C79.75 31.27, 89.57 18.67, 106.44 0.4 M73.26 45.01 C85.63 33.38, 95.44 21.03, 108.14 2.88 M73.74 44.16 C87.95 27.65, 102.97 9.37, 109.66 0.55 M76.99 44.24 C89.09 35.23, 95.64 22.25, 114.34 3.6 M78.07 44.99 C86.68 34.22, 93.41 25.2, 112.36 4.96 M83.93 43.74 C96.76 31.86, 107.46 17.92, 114.03 6.63 M84.85 43.63 C93.49 31.28, 105.09 21.29, 116.34 6.75 M87.63 43.45 C97.77 34.86, 107.16 21.71, 116.83 11.21 M89.41 44.24 C97.26 34.36, 105.11 24.66, 118.07 10.05 M92.98 42.54 C103.05 34.64, 111.07 26.68, 119.8 15.19 M95.44 44 C102.48 34.98, 109.61 25.68, 120.87 14.4 M98.12 45.29 C107.77 32.37, 116.26 25.91, 122.56 15.06 M98.65 44.74 C104.76 37.98, 110.05 30.61, 122.9 17.56 M104.9 44.83 C111.34 37.51, 117.74 28.92, 126.51 21.25 M105.91 43.49 C111.6 36.42, 118.28 27.65, 125.99 20.6 M108.81 45.05 C114.23 39.74, 118.34 34.32, 129.96 22.22 M110.89 44.14 C115.57 37.27, 123.58 29.6, 127.54 22.76 M117.4 44.31 C121.48 38.57, 126.76 30.59, 129.41 26.51 M115.27 43.95 C119.43 39.86, 123.02 34.9, 131.54 27.29 M120.27 45.26 C125.9 36.92, 131.69 31.19, 132.68 28.13 M120.37 43.25 C123.75 40.48, 128.48 34.57, 132.36 29.54 M127.13 43.12 C128.88 38.48, 132.64 36.18, 136.05 32.24 M126.25 43.76 C128.58 40.03, 131.27 37.1, 135.72 32.67 M132.61 41.57 C134.18 40.03, 136.27 37.29, 138.99 35.79 M132.69 42.85 C134.61 39.85, 136.81 37.98, 138.4 35.43" stroke="#ced4da" stroke-width="0.5" fill="none"></path><path d="M0.98 -1.75 C-5.58 8.7, -15.15 17.56, -32.19 37.49 M0.89 0.16 C-11.84 14.14, -23.49 28.08, -29.64 35.58 M-29.99 35.87 C-28.41 37.73, -27.33 40.02, -25.11 42.18 M-29.99 36.11 C-27.71 38.14, -25.78 40.94, -24.45 41.79 M-24.8 43.35 C31.01 41.33, 85.9 40.31, 134.87 41.16 M-23.89 41.56 C38.96 42.98, 100.75 42.63, 132.76 42.04 M132.94 41.87 C134.75 39.36, 137.68 37.07, 139.08 36.87 M132.75 42.12 C134.68 40.7, 135.85 39.14, 139.14 36.53 M136.89 36.23 C131.68 26.81, 122.32 13.56, 109.3 -0.87 M138.51 35.7 C127.16 22.78, 114.3 6.89, 107.79 -0.36 M110.09 0.59 C78.01 -0.63, 46.29 -0.19, -0.02 0.92 M109.63 0.88 C68.2 -0.68, 26.04 -0.92, -0.88 0.06 M0 0 C0 0, 0 0, 0 0 M0 0 C0 0, 0 0, 0 0" stroke="#000000" stroke-width="1" fill="none"></path></g></g><mask></mask><g stroke-linecap="round" transform="translate(44.64959085785267 351.23914706106575) rotate(0 51.4785780574266 33.30966815480542)"><path d="M-1.91 1.92 L100.97 0 L104.54 67.87 L1.35 65.57" stroke="none" stroke-width="0" fill="#fff"></path><path d="M-1.75 1.99 C28.8 -0.57, 58.03 -2.5, 104.22 1.92 M0.16 0.33 C24.96 -0.29, 49.5 -0.37, 102.31 -0.12 M102.07 0.39 C102.24 16.93, 103.69 34.31, 103.13 68.25 M102.67 0.7 C102.4 22.22, 103.74 44.33, 102.18 67.12 M104.2 66.93 C75.82 66.47, 47.06 68.35, -0.95 68.61 M102.4 67.18 C65.29 66.69, 26.56 67.03, -0.08 67.54 M-0.57 65.34 C-0.72 46.22, -0.67 25.93, 1.54 -1.11 M0.01 67.18 C0.5 49.3, 0.19 32.76, 0.72 0.02" stroke="#000000" stroke-width="1" fill="none"></path></g><g transform="translate(76.94817623949803 372.5488152158712) rotate(0 19.17999267578125 12)"><text x="19.17999267578125" y="0" font-family="Virgil, Segoe UI Emoji" font-size="20px" fill="#000000" text-anchor="middle" style="white-space: pre;" direction="ltr" dominant-baseline="text-before-edge">1100</text></g><g stroke-linecap="round"><g transform="translate(84.32527208624151 439.0898056007195) rotate(0 12.853264824019504 5.771301086290634)" fill-rule="evenodd"><path d="M-0.58 1.39 L-5.45 13.15 L29.87 13.19 L24.28 -0.02 L0.92 1.61" stroke="none" stroke-width="0" fill="#fff" fill-rule="evenodd"></path><path d="M1.34 -0.39 C-2.33 4.13, -5.97 10.17, -4.74 11.3 M0.22 0.01 C-0.83 2.47, -2.25 5.04, -6.12 11.87 M-5.65 11.57 C2.74 13.18, 11.97 12.41, 31.82 12.72 M-5.34 11.31 C6.05 12.76, 18.01 11.41, 30.7 11.77 M30.4 12.48 C27.88 7.15, 26.82 2.12, 25.5 0.98 M30.57 12.56 C28 8.78, 26.47 4.99, 24.78 0.06 M22.87 -1.17 C18.75 -1.2, 13.47 1.47, -1.11 -0.82 M24.71 -0.05 C18.83 -0.36, 14.29 0.72, 0.02 -0.96 M0 0 C0 0, 0 0, 0 0 M0 0 C0 0, 0 0, 0 0" stroke="#000000" stroke-width="1" fill="none"></path></g></g><mask></mask><g stroke-linecap="round"><g transform="translate(11.864476066203906 457.20500460572896) rotate(0 84.09107083025236 -0.5103110213042896)"><path d="M-0.58 -0.07 C58.25 -3.68, 119.24 0.24, 167.92 -1.48 M0.01 0.63 C65.42 0, 131.01 -0.67, 168.76 -0.31" stroke="#000000" stroke-width="1" fill="none"></path></g></g><mask></mask><g stroke-linecap="round"><g transform="translate(191.48211829904608 16.719847597981868) rotate(0 29.14853773242777 31.683900070288843)" fill-rule="evenodd"><path d="M1.98 -1.08 L2.8 63.37 L11.78 69.09 L32.45 68.2 L46.02 67.93 L56.81 62.66 L55.5 1.09 L48.6 -4.61 L26.48 -5.83 L6.04 -3.45 L-0.54 1.78" stroke="none" stroke-width="0" fill="#ced4da" fill-rule="evenodd"></path><path d="M-0.31 1.09 C-0.16 10.63, 0.98 46.15, 1.17 56.24 C1.36 66.32, 0.46 60.06, 0.82 61.59 C1.19 63.13, 1.13 64.63, 3.37 65.47 C5.62 66.3, 9.64 66.27, 14.29 66.62 C18.94 66.97, 25.97 67.5, 31.28 67.54 C36.59 67.59, 41.84 67.44, 46.17 66.9 C50.51 66.37, 55.51 64.95, 57.27 64.32 C59.04 63.69, 56.7 64.44, 56.78 63.13 C56.87 61.82, 57.51 66.15, 57.77 56.46 C58.02 46.77, 58.32 14.36, 58.33 4.99 C58.33 -4.38, 58.48 1.5, 57.82 0.26 C57.16 -0.98, 56.5 -1.59, 54.37 -2.45 C52.23 -3.3, 49.43 -4.3, 45.01 -4.89 C40.59 -5.49, 33.08 -5.82, 27.87 -5.99 C22.65 -6.16, 17.94 -6.52, 13.72 -5.92 C9.5 -5.32, 4.79 -3.41, 2.57 -2.37 C0.35 -1.33, 0.99 -0.03, 0.41 0.33 C-0.17 0.7, -0.92 -0.13, -0.91 -0.17 M1.72 0.61 C1.78 10.45, 0.95 47.51, 0.74 57.81 C0.54 68.11, -0.03 60.93, 0.49 62.4 C1 63.87, 1.69 65.96, 3.83 66.64 C5.98 67.32, 9.1 65.94, 13.35 66.46 C17.61 66.97, 23.87 69.28, 29.35 69.71 C34.83 70.14, 41.64 70.01, 46.23 69.04 C50.81 68.07, 54.81 65.03, 56.85 63.91 C58.89 62.78, 58.16 63.64, 58.46 62.28 C58.76 60.92, 58.53 65.11, 58.64 55.75 C58.75 46.39, 59.43 15.39, 59.12 6.12 C58.81 -3.16, 57.45 1.61, 56.78 0.09 C56.1 -1.43, 57.23 -2.1, 55.1 -2.99 C52.97 -3.88, 48.47 -4.65, 43.98 -5.25 C39.5 -5.85, 33.05 -6.61, 28.19 -6.58 C23.32 -6.55, 19.26 -5.92, 14.79 -5.09 C10.32 -4.26, 3.95 -2.6, 1.38 -1.6 C-1.2 -0.6, -0.56 0.63, -0.64 0.89 C-0.73 1.16, 0.58 0.41, 0.89 0" stroke="#000000" stroke-width="1" fill="none"></path></g></g><mask></mask><g stroke-linecap="round" transform="translate(191.6862806413369 10) rotate(0 28.609197708467775 5.78599500070564)"><path d="M32.37 0 C38.11 -0.15, 44.08 0.39, 48.33 1.44 C52.57 2.48, 57.12 4.91, 57.85 6.27 C58.57 7.64, 56.39 8.88, 52.69 9.63 C48.99 10.37, 41.84 10.5, 35.67 10.74 C29.5 10.99, 21.07 11.69, 15.7 11.09 C10.33 10.49, 5.85 8.4, 3.46 7.15 C1.07 5.9, -0.03 4.63, 1.36 3.59 C2.74 2.55, 6.49 1.52, 11.77 0.93 C17.04 0.33, 29.12 0.19, 33 0.01 C36.89 -0.17, 35.09 -0.13, 35.08 -0.16 M37.72 0.6 C43.24 0.95, 49.51 1.6, 52.46 2.48 C55.4 3.37, 56.28 4.63, 55.4 5.89 C54.53 7.15, 51.45 8.9, 47.21 10.03 C42.98 11.15, 35.93 12.46, 30 12.62 C24.06 12.78, 16.52 11.9, 11.61 11 C6.7 10.11, 1.59 8.72, 0.53 7.24 C-0.52 5.76, 2.17 3.45, 5.27 2.13 C8.37 0.82, 13.44 -0.61, 19.14 -0.67 C24.84 -0.73, 36.05 1.41, 39.46 1.79 C42.87 2.16, 40.14 1.62, 39.59 1.59" stroke="none" stroke-width="0" fill="#fff"></path><path d="M29.69 0.11 C35.55 0.06, 43.79 -0.11, 48.41 0.57 C53.03 1.26, 56.8 2.89, 57.41 4.21 C58.02 5.54, 55.2 7.37, 52.07 8.53 C48.94 9.69, 44.38 10.58, 38.64 11.16 C32.91 11.74, 23.47 12.52, 17.63 12.02 C11.8 11.51, 6.36 9.32, 3.65 8.13 C0.93 6.94, 0.04 5.94, 1.33 4.86 C2.62 3.79, 5.12 2.34, 11.38 1.66 C17.64 0.98, 33.27 0.88, 38.88 0.78 C44.5 0.67, 45.35 1, 45.05 1.01 M29.44 0.55 C35.51 0.3, 43.51 -0.5, 48.05 0.33 C52.59 1.15, 55.85 3.86, 56.7 5.52 C57.55 7.19, 56.46 9.1, 53.15 10.3 C49.84 11.51, 42.79 12.79, 36.85 12.75 C30.9 12.71, 22.86 10.53, 17.47 10.05 C12.08 9.58, 7.35 10.94, 4.51 9.88 C1.67 8.81, -0.71 5.17, 0.43 3.67 C1.57 2.17, 6.61 1.75, 11.34 0.89 C16.07 0.03, 25.57 -1.13, 28.81 -1.48 C32.06 -1.84, 30.84 -1.4, 30.83 -1.23" stroke="#000000" stroke-width="1" fill="none"></path></g><g stroke-linecap="round"><g transform="translate(515.1412894519977 305.3495128520062) rotate(269.83845249062614 18.396715778412613 81.47546811886355)" fill-rule="evenodd"><path d="M0.53 1.74 L36.41 0.97 L38.71 147.04 L19.06 164.52 L-1.11 147.72 L1.11 -0.17" stroke="none" stroke-width="0" fill="#eeeeee" fill-rule="evenodd"></path><path d="M-1.3 -1.51 C11.41 1.06, 26.04 1.02, 37.16 -1.99 M-0.19 -0.02 C9.93 0.29, 19.28 1, 38.19 0.29 M38.17 -0.64 C35.8 33.35, 35.84 68.03, 36.79 149.28 M36.82 0.03 C37.05 49.61, 37.29 98.17, 37.48 148.43 M35.51 147.66 C33.17 152.66, 31.23 155.58, 16.84 164.9 M37.34 148.7 C31.61 153.27, 25.07 158.51, 18.45 164.95 M19.79 164.47 C14.73 157.22, 8.73 152.13, 2.11 146.16 M18.45 164.8 C13.65 161.36, 9.91 156.28, 1.19 147.13 M1.96 145.66 C1.81 118.1, 1.53 86.66, -1.4 0.5 M1.31 146.21 C1.95 116.65, 0.74 85.9, -0.73 -0.84 M0 0 C0 0, 0 0, 0 0 M0 0 C0 0, 0 0, 0 0" stroke="#000000" stroke-width="1" fill="none"></path></g></g><mask></mask><g stroke-linecap="round" transform="translate(457.4186780156547 379.83219901545453) rotate(0 15.345535285632366 10.199727046138946)"><path d="M0.05 -0.34 L32.06 -1.29 L32.07 22.02 L1.22 21.04" stroke="none" stroke-width="0" fill="#868e96"></path><path d="M-1.51 -1.46 C7.86 0.51, 14.99 -0.37, 28.84 -0.92 M-0.02 0.34 C10.57 0.17, 21.83 0.52, 31.12 -0.66 M30.2 -0.82 C29.44 4, 29.47 8.8, 32.11 21 M30.86 0.36 C31.73 5.55, 31.45 9.75, 31.26 19.43 M30.49 20.16 C24.48 21.84, 16.41 18.81, 0.62 21.14 M31.53 21.02 C19.8 20.96, 8.89 20.68, 0.67 20.46 M0.19 22.4 C-1.8 15.33, -1.58 9.01, -0.8 -1.68 M0.52 19.67 C0.76 13.89, -0.58 9.33, 0.17 -0.93" stroke="#000000" stroke-width="1" fill="none"></path></g><g stroke-linecap="round"><g transform="translate(473.57591019714414 389.83005581350017) rotate(0 -0.6874828510507882 -4.980301126955283)" fill-rule="evenodd"><path d="M-0.34 1.37 L13.26 -8.26 L-13.7 -8.3 L0.64 -1.4" stroke="none" stroke-width="0" fill="#ced4da" fill-rule="evenodd"></path><path d="M-1.27 0.65 C3.31 -1.2, 5.52 -5.44, 13.76 -8.9 M0.3 0.06 C3.46 -1.5, 7.13 -4.06, 13.98 -10.24 M13.74 -10.79 C6.44 -10.79, -0.88 -8.23, -14.72 -10.78 M14.91 -8.71 C4.71 -8.89, -6.48 -8.93, -16.29 -10.02 M-15.53 -8.21 C-9.15 -5.64, -7.18 -3.1, 0.67 0.82 M-14.76 -9.78 C-8.91 -6.5, -3.25 -1.71, 0.06 0.15 M0 0 C0 0, 0 0, 0 0 M0 0 C0 0, 0 0, 0 0" stroke="#000000" stroke-width="1" fill="none"></path></g></g><mask></mask><g stroke-linecap="round"><g transform="translate(522.4417164122343 391.58106354102824) rotate(0 20.078060834905273 -0.90042727288278)"><path d="M0.75 0.31 C9.82 -0.45, 16.27 -0.97, 39.41 -2.11" stroke="#000000" stroke-width="1.5" fill="none" stroke-dasharray="1.5 7"></path></g></g><mask></mask><g stroke-linecap="round" transform="translate(494.1054977199294 380.0088610686038) rotate(0 15.345535285632366 10.199727046138946)"><path d="M-1.29 1.38 L32.31 1.22 L31.33 19 L0.5 18.62" stroke="none" stroke-width="0" fill="#868e96"></path><path d="M0.31 0.76 C6.32 -1.96, 12.86 0.73, 29.3 -0.37 M0.11 0.82 C9.6 0.41, 17.61 -0.71, 30.17 0.22 M29.98 -1.11 C29.99 7.04, 31.21 9.97, 31.76 18.59 M31.4 0.65 C30.84 7.04, 29.79 12.44, 30.76 19.45 M32.42 21.44 C20.49 21.25, 13.63 21.54, 1.7 20.27 M31.27 19.82 C19.22 20.98, 7.2 20.48, 0.14 21.22 M1.38 18.85 C1.31 13.29, -1.89 7.49, 0.31 0.63 M-0.67 19.85 C0.75 13.39, -0.78 6.05, -0.17 0.69" stroke="#000000" stroke-width="1" fill="none"></path></g><g stroke-linecap="round"><g transform="translate(510.28728958665226 389.29294722568636) rotate(0 -0.9593852366841702 -4.5893967865004015)" fill-rule="evenodd"><path d="M1.38 1.62 L15.78 -9 L-16.72 -9.02 L-1.78 -1.03" stroke="none" stroke-width="0" fill="#ced4da" fill-rule="evenodd"></path><path d="M0.66 -0.5 C1.66 -3.01, 7.31 -5.62, 14.23 -9.68 M0.71 0.41 C5.24 -3.81, 9.12 -6.91, 14.75 -9.85 M13.44 -10.25 C8.24 -9.11, -2.17 -8.61, -17.13 -9.17 M15.21 -9.56 C5.1 -10.36, -6 -9.28, -16.27 -9.62 M-14.38 -10.69 C-10.27 -6.24, -5.6 -2.63, -0.11 1.51 M-15.84 -9.24 C-9.19 -6.1, -4.09 -2.58, 0.74 0.09 M0 0 C0 0, 0 0, 0 0 M0 0 C0 0, 0 0, 0 0" stroke="#000000" stroke-width="1" fill="none"></path></g></g><mask></mask><g stroke-linecap="round" transform="translate(559.9415561940406 379.30221285600066) rotate(0 15.345535285632423 10.199727046138946)"><path d="M1.62 1.22 L31.33 -1.4 L31.19 18.62 L-1.03 20.6" stroke="none" stroke-width="0" fill="#868e96"></path><path d="M-0.57 -1.85 C9.44 0.73, 19.31 -0.49, 30.64 0.69 M0.47 0.43 C8.75 -0.94, 18.3 -0.03, 30.44 -0.41 M30.07 1.42 C31.22 3.69, 31.69 8.09, 31.04 21.11 M30.77 0.57 C29.87 7.51, 30.9 15.07, 30.59 20.28 M29.39 21.02 C19.99 21.47, 9.51 20.43, 1.68 21.65 M31 21.07 C22.42 20.38, 14.16 21.05, 0.1 21.4 M1.52 19.6 C-1.82 15.8, 0.16 12.4, 1.04 -1.45 M0.6 20.57 C-0.79 12.69, -0.03 5.61, -0.65 0.69" stroke="#000000" stroke-width="1" fill="none"></path></g><g stroke-linecap="round"><g transform="translate(576.7429825907578 388.14675393902144) rotate(0 0.26966432672372775 -5.303698444965789)" fill-rule="evenodd"><path d="M1.22 0.64 L13.16 -9.14 L-17.1 -10.55 L0.2 1.43" stroke="none" stroke-width="0" fill="#ced4da" fill-rule="evenodd"></path><path d="M-1.61 -0.8 C5.29 -4.22, 8.82 -6.08, 15.16 -9.52 M0.38 -0.58 C3.84 -3.52, 9.16 -6.27, 14.2 -10.14 M15.98 -9.04 C5.4 -8.63, -3.06 -9.32, -14.6 -7.67 M15.13 -10.61 C2.97 -9.5, -8.55 -9.63, -15.44 -8.79 M-14.76 -8.85 C-8.53 -4.21, -3.55 -0.55, 1.13 -0.51 M-14.72 -9.46 C-9.75 -6.04, -3.67 -2.67, 0.9 -0.8 M0 0 C0 0, 0 0, 0 0 M0 0 C0 0, 0 0, 0 0" stroke="#000000" stroke-width="1" fill="none"></path></g></g><mask></mask><g transform="translate(472.2593507400087 406.2338163745817) rotate(0 61.07932500056506 15.55794127372883)"><text x="61.07932500056507" y="0" font-family="Virgil, Segoe UI Emoji" font-size="23.048801887005677px" fill="#000000" text-anchor="middle" style="white-space: pre;" direction="ltr" dominant-baseline="text-before-edge">Message Q</text></g><g transform="translate(182.2341060787611 101.60983326751563) rotate(0 38.569969177246094 12)"><text x="0" y="0" font-family="Virgil, Segoe UI Emoji" font-size="20px" fill="#000000" text-anchor="start" style="white-space: pre;" direction="ltr" dominant-baseline="text-before-edge">ID Pool</text></g><g transform="translate(132.2341060787611 132.60983326751563) rotate(0 93.24999237060547 12)"><text x="0" y="0" font-family="Virgil, Segoe UI Emoji" font-size="20px" fill="#000000" text-anchor="start" style="white-space: pre;" direction="ltr" dominant-baseline="text-before-edge">随机分配临时唯一ID</text></g><g transform="translate(437.2341060787611 454.60983326751546) rotate(0 95.48997497558594 12)"><text x="0" y="0" font-family="Virgil, Segoe UI Emoji" font-size="20px" fill="#000000" text-anchor="start" style="white-space: pre;" direction="ltr" dominant-baseline="text-before-edge">Channel模拟消息队列</text></g><g stroke-linecap="round"><g transform="translate(175.2341060787611 175.60983326751557) rotate(0 -44.89850353262386 73.1659767130669)"><path d="M-0.6 1.01 C-15.86 25.28, -76.29 121.82, -91.08 145.83 M1.28 0.5 C-13.66 24.42, -73.75 119.82, -88.93 144.15" stroke="#000000" stroke-width="1" fill="none"></path></g><g transform="translate(175.2341060787611 175.60983326751557) rotate(0 -44.89850353262386 73.1659767130669)"><path d="M-80.95 113.02 C-83.34 125.84, -86.71 132.75, -90.52 143.81 M-83.32 115.58 C-84.9 125.64, -86.61 135.22, -89.08 145.01" stroke="#000000" stroke-width="1" fill="none"></path></g><g transform="translate(175.2341060787611 175.60983326751557) rotate(0 -44.89850353262386 73.1659767130669)"><path d="M-63.57 123.92 C-71.89 132.95, -81.17 136.15, -90.52 143.81 M-65.94 126.48 C-73.35 132.72, -80.92 138.63, -89.08 145.01" stroke="#000000" stroke-width="1" fill="none"></path></g></g><mask></mask><g stroke-linecap="round"><g transform="translate(355.2341060787611 65.61311830277646) rotate(0 118.79595042861996 -0.0836833418502465)"><path d="M1 0.44 C40.42 0.17, 198 -0.71, 237.53 -0.68 M0.07 -0.37 C39.2 -0.58, 196.76 0.67, 236.33 0.5" stroke="#000000" stroke-width="1" fill="none"></path></g><g transform="translate(355.2341060787611 65.61311830277646) rotate(0 118.79595042861996 -0.0836833418502465)"><path d="M208.85 9.9 C217.72 6.79, 230.69 0.65, 234.35 0 M207.55 9.71 C215.72 7.34, 221.86 5.53, 236.24 1.21" stroke="#000000" stroke-width="1" fill="none"></path></g><g transform="translate(355.2341060787611 65.61311830277646) rotate(0 118.79595042861996 -0.0836833418502465)"><path d="M208.9 -10.62 C217.91 -5.86, 230.86 -4.13, 234.35 0 M207.6 -10.81 C215.95 -8.07, 222.08 -4.77, 236.24 1.21" stroke="#000000" stroke-width="1" fill="none"></path></g></g><mask></mask><g transform="translate(167.50548477370262 257.9823273775628) rotate(0 115.13998413085938 12)"><text x="0" y="0" font-family="Virgil, Segoe UI Emoji" font-size="20px" fill="#000000" text-anchor="start" style="white-space: pre;" direction="ltr" dominant-baseline="text-before-edge">1 建立加密时分配ID 1100</text></g><g transform="translate(344.00497567382047 16.476413947903097) rotate(0 124.02996826171875 12)"><text x="0" y="0" font-family="Virgil, Segoe UI Emoji" font-size="20px" fill="#000000" text-anchor="start" style="white-space: pre;" direction="ltr" dominant-baseline="text-before-edge">2 建立加密时分配ID 1528</text></g><g stroke-linecap="round"><g transform="translate(171.2341060787611 387.60983326751557) rotate(0 129.59157719873826 -0.27063631335272476)"><path d="M0.44 -1.16 C43.72 -1.11, 216.81 0.12, 259.96 0.49 M-0.78 0.84 C42.31 0.52, 215.82 -1.12, 259 -1.38" stroke="#000000" stroke-width="1" fill="none"></path></g><g transform="translate(171.2341060787611 387.60983326751557) rotate(0 129.59157719873826 -0.27063631335272476)"><path d="M228.95 9.05 C240.81 4.59, 250.88 0.53, 258.12 -0.85 M230.68 8.39 C236.75 7.27, 242.45 4.57, 259.98 -0.77" stroke="#000000" stroke-width="1" fill="none"></path></g><g transform="translate(171.2341060787611 387.60983326751557) rotate(0 129.59157719873826 -0.27063631335272476)"><path d="M228.79 -11.47 C240.72 -9.27, 250.85 -6.67, 258.12 -0.85 M230.52 -12.13 C236.5 -8.71, 242.23 -6.87, 259.98 -0.77" stroke="#000000" stroke-width="1" fill="none"></path></g></g><mask></mask><g transform="translate(202.67198826367348 408.32687559613146) rotate(0 105.46997833251953 12)"><text x="0" y="0" font-family="Virgil, Segoe UI Emoji" font-size="20px" fill="#000000" text-anchor="start" style="white-space: pre;" direction="ltr" dominant-baseline="text-before-edge">3 发送加密消息给1528</text></g><g stroke-linecap="round"><g transform="translate(798.5232454731917 334.53324543568715) rotate(0 2.696932140184458 13.495375635886376)"><path d="M-0.33 -0.25 C0.47 -0.1, 2.7 0.35, 3.74 1.41 C4.77 2.47, 5.55 2.2, 5.9 6.09 C6.25 9.99, 6.32 21.25, 5.82 24.79 C5.33 28.33, 3.78 27.72, 2.94 27.33 C2.09 26.95, 1.21 26.98, 0.75 22.49 C0.29 18.01, 0.3 4.03, 0.17 0.41 M1.7 -1.42 C2.39 -1.63, 1.89 -1.52, 2.54 -0.13 C3.19 1.27, 4.95 2.56, 5.6 6.94 C6.25 11.32, 7.1 22.63, 6.44 26.14 C5.79 29.65, 2.98 28.27, 1.7 28.01 C0.41 27.76, -1.15 29.41, -1.28 24.62 C-1.41 19.83, 0.86 3.25, 0.9 -0.72" stroke="#000000" stroke-width="1" fill="none"></path></g></g><mask></mask><g stroke-linecap="round"><g transform="translate(808.7150918077544 334.50742869416786) rotate(0 2.9899927582395094 13.385760492546751)"><path d="M-0.25 -0.47 C0.55 -0.22, 4.6 -0.17, 5.32 1.19 C6.05 2.55, 4.06 3.77, 4.1 7.7 C4.15 11.62, 5.77 21.5, 5.59 24.75 C5.41 28, 4.08 27.39, 3.05 27.2 C2.02 27.01, -0.16 28.14, -0.6 23.6 C-1.04 19.07, 0.18 3.71, 0.41 -0.03 M1.83 -1.76 C2.52 -1.81, 4.18 -1.71, 4.96 -0.46 C5.75 0.79, 6.34 1.3, 6.53 5.73 C6.72 10.15, 6.86 22.4, 6.09 26.08 C5.31 29.76, 2.83 28.38, 1.86 27.8 C0.9 27.23, 0.41 27.52, 0.31 22.65 C0.21 17.79, 1.3 2.14, 1.27 -1.39" stroke="#000000" stroke-width="1" fill="none"></path></g></g><mask></mask><g stroke-linecap="round"><g transform="translate(818.4483197763069 334.5246831875355) rotate(0 2.8715974133355076 12.868378641473214)"><path d="M-0.47 1.12 C0.44 1.06, 4.07 -1.66, 5.1 -0.6 C6.13 0.45, 5.64 3.22, 5.71 7.46 C5.79 11.71, 6.02 21.8, 5.55 24.86 C5.09 27.92, 3.75 26.01, 2.91 25.84 C2.07 25.67, 1 28.03, 0.51 23.85 C0.02 19.67, -0.14 4.7, -0.03 0.78 M1.49 0.66 C2.34 0.75, 3.99 -0.32, 4.63 0.46 C5.26 1.25, 5.08 1.68, 5.32 5.37 C5.55 9.06, 6.64 19.2, 6.03 22.59 C5.42 25.98, 2.33 25.66, 1.66 25.74 C0.99 25.81, 2.18 27.34, 2.01 23.03 C1.83 18.71, 0.81 3.66, 0.6 -0.16" stroke="#000000" stroke-width="1" fill="none"></path></g></g><mask></mask><g stroke-linecap="round"><g transform="translate(798.5232454731917 414.35320583762984) rotate(0 2.4719937815747244 13.69380596583153)"><path d="M1.12 0.9 C1.71 1.14, 2.58 -0.09, 3.31 1 C4.04 2.09, 5.08 3.47, 5.48 7.43 C5.87 11.38, 6.31 21.47, 5.66 24.72 C5.01 27.98, 2.37 27.17, 1.56 26.95 C0.74 26.73, 0.88 27.71, 0.75 23.41 C0.62 19.12, 0.85 4.99, 0.78 1.18 M0.25 0.32 C1.23 0.27, 4.77 -1.58, 5.55 -0.75 C6.34 0.08, 4.85 0.85, 4.96 5.31 C5.07 9.78, 6.48 22.36, 6.2 26.04 C5.91 29.73, 4.49 28.04, 3.25 27.43 C2 26.82, -1.04 26.85, -1.28 22.36 C-1.51 17.86, 1.71 4.1, 1.83 0.46" stroke="#000000" stroke-width="1" fill="none"></path></g></g><mask></mask><g stroke-linecap="round"><g transform="translate(808.7150918077544 414.32738909611055) rotate(0 2.4633780752162693 13.30331200799975)"><path d="M0.9 -0.9 C1.79 -0.95, 4.16 -0.64, 4.92 0.77 C5.67 2.17, 5.34 3.77, 5.44 7.53 C5.54 11.3, 5.99 20.09, 5.53 23.37 C5.06 26.64, 3.53 27.06, 2.67 27.2 C1.8 27.34, 0.56 28.7, 0.31 24.21 C0.07 19.73, 1.14 4.37, 1.18 0.3 M-0.09 1.25 C0.75 1.34, 3.51 -1.81, 4.34 -1.11 C5.17 -0.4, 4.63 1.3, 4.9 5.48 C5.18 9.66, 6.59 20.25, 5.99 23.97 C5.38 27.7, 1.99 27.87, 1.28 27.81 C0.57 27.74, 2.13 28.36, 1.71 23.58 C1.3 18.8, -0.9 3.15, -1.21 -0.88" stroke="#000000" stroke-width="1" fill="none"></path></g></g><mask></mask><g stroke-linecap="round"><g transform="translate(818.4483197763069 414.34464358947844) rotate(0 2.352499100965815 13.22259042040622)"><path d="M-0.9 0.71 C-0.3 0.68, 3.61 -0.39, 4.68 0.73 C5.75 1.84, 5.63 3.44, 5.55 7.4 C5.46 11.36, 4.61 21.25, 4.17 24.48 C3.73 27.7, 3.42 26.74, 2.91 26.76 C2.4 26.78, 1.55 28.99, 1.12 24.62 C0.68 20.26, 0.52 4.63, 0.3 0.57 M0.84 0.04 C1.21 -0.44, 3.28 -2.04, 3.98 -1.16 C4.69 -0.29, 5.08 0.8, 5.07 5.27 C5.06 9.74, 4.49 22.02, 3.92 25.67 C3.35 29.31, 2.43 27.38, 1.66 27.14 C0.89 26.89, -0.63 28.81, -0.72 24.21 C-0.82 19.6, 1.2 3.55, 1.11 -0.48" stroke="#000000" stroke-width="1" fill="none"></path></g></g><mask></mask><g stroke-linecap="round"><g transform="translate(848.2209470608599 364.72420921203604) rotate(89.99999999999994 2.717718335343534 13.59556654082985)"><path d="M0.71 0.47 C1.33 0.76, 3.86 -0.09, 4.64 0.84 C5.43 1.77, 5.31 2.06, 5.41 6.04 C5.52 10.02, 5.77 21.14, 5.28 24.73 C4.79 28.31, 3.1 27.73, 2.47 27.56 C1.85 27.4, 1.84 28.37, 1.53 23.74 C1.21 19.12, 0.78 3.6, 0.57 -0.18 M-0.38 -0.32 C0.05 -0.31, 3.05 -2.19, 3.92 -1 C4.8 0.2, 4.58 2.36, 4.86 6.86 C5.14 11.37, 6.26 22.46, 5.61 26.05 C4.97 29.63, 1.94 28.89, 0.99 28.36 C0.04 27.83, -0.19 27.86, -0.1 22.86 C-0.01 17.87, 1.6 1.97, 1.51 -1.62" stroke="#000000" stroke-width="1" fill="none"></path></g></g><mask></mask><g stroke-linecap="round"><g transform="translate(848.5444270291904 374.9479240584046) rotate(89.99999999999994 2.5772318668787193 13.108413212843459)"><path d="M0.47 0.44 C1.42 0.44, 4.16 -0.42, 4.75 0.7 C5.35 1.82, 3.93 3.22, 4.06 7.15 C4.19 11.08, 5.66 20.82, 5.53 24.28 C5.4 27.75, 4.09 28.02, 3.28 27.97 C2.46 27.92, 1.22 28.63, 0.64 24 C0.07 19.38, -0.25 4.3, -0.18 0.23 M-0.74 -0.38 C0.17 -0.81, 2.89 -2.69, 4.09 -1.2 C5.29 0.29, 6.14 4.13, 6.45 8.56 C6.77 12.99, 6.7 22.58, 5.99 25.37 C5.28 28.17, 3.45 25.68, 2.21 25.32 C0.97 24.97, -1.14 27.65, -1.44 23.26 C-1.75 18.87, 0.03 3.05, 0.37 -0.99" stroke="#000000" stroke-width="1" fill="none"></path></g></g><mask></mask><g stroke-linecap="round"><g transform="translate(848.4404399729584 384.4615319875011) rotate(89.99999999999994 2.151201954560065 13.332852223294879)"><path d="M0.44 0.55 C1.09 0.36, 3.83 -1.8, 4.62 -0.65 C5.4 0.49, 5.09 3.11, 5.17 7.4 C5.24 11.69, 5.33 21.81, 5.09 25.09 C4.84 28.37, 4.38 27.39, 3.69 27.09 C2.99 26.79, 1.48 27.59, 0.91 23.26 C0.33 18.93, 0.45 4.79, 0.23 1.09 M-0.79 -0.21 C-0.32 -0.32, 3 -0.53, 3.88 0.39 C4.76 1.3, 4.25 1.52, 4.49 5.28 C4.73 9.03, 5.6 19.21, 5.32 22.94 C5.05 26.67, 3.9 27.78, 2.84 27.64 C1.78 27.51, -0.74 26.68, -1.04 22.13 C-1.35 17.57, 1.1 3.79, 1 0.31" stroke="#000000" stroke-width="1" fill="none"></path></g></g><mask></mask><g stroke-linecap="round"><g transform="translate(767.7175965869816 364.72420921203604) rotate(89.99999999999994 2.641786868293707 13.815450750555271)"><path d="M0.55 0.41 C1.01 0.41, 2.45 -0.63, 3.26 0.46 C4.07 1.55, 4.98 2.79, 5.41 6.96 C5.85 11.13, 6.33 22.1, 5.89 25.5 C5.46 28.9, 3.76 27.66, 2.8 27.35 C1.85 27.05, 0.45 28.3, 0.16 23.67 C-0.12 19.04, 0.94 3.46, 1.09 -0.41 M-0.63 -0.42 C0.17 -0.23, 4.56 0.63, 5.48 2.08 C6.39 3.53, 4.69 4.68, 4.87 8.26 C5.04 11.84, 7.11 20.27, 6.54 23.56 C5.98 26.86, 2.34 28.17, 1.49 28.04 C0.65 27.9, 1.96 27.14, 1.48 22.75 C1.01 18.36, -1.21 5.42, -1.36 1.69" stroke="#000000" stroke-width="1" fill="none"></path></g></g><mask></mask><g stroke-linecap="round"><g transform="translate(768.0410765553125 374.9479240584046) rotate(89.99999999999994 2.758171771778393 13.257999788667746)"><path d="M0.41 -0.94 C1.07 -0.92, 3.61 -0.75, 4.37 0.7 C5.13 2.16, 4.65 3.78, 4.97 7.76 C5.3 11.75, 6.62 21.47, 6.3 24.62 C5.98 27.76, 4.02 26.62, 3.07 26.61 C2.11 26.59, 1.15 28.79, 0.57 24.53 C-0.01 20.27, -0.39 5.25, -0.41 1.05 M-0.83 1.17 C-0.36 0.78, 2.67 -1.98, 3.51 -1.2 C4.35 -0.43, 4.19 1.32, 4.19 5.83 C4.19 10.34, 3.89 22.37, 3.51 25.88 C3.12 29.39, 2.13 27.21, 1.89 26.91 C1.66 26.6, 2.42 28.5, 2.11 24.06 C1.79 19.61, 0.42 4.5, 0.02 0.25" stroke="#000000" stroke-width="1" fill="none"></path></g></g><mask></mask><g stroke-linecap="round"><g transform="translate(767.9370894990803 384.4615319875011) rotate(89.99999999999994 2.3346032315871525 13.373025182063259)"><path d="M-0.94 0.17 C-0.27 0.14, 3.5 -1.07, 4.62 0.26 C5.74 1.6, 5.64 4.07, 5.78 8.17 C5.91 12.27, 5.99 21.74, 5.42 24.88 C4.84 28.02, 2.99 27.33, 2.32 27.02 C1.66 26.71, 1.64 27.45, 1.43 23.03 C1.22 18.6, 1.4 4.46, 1.05 0.47 M0.76 -0.79 C1.27 -0.65, 3.11 0.58, 3.89 1.79 C4.66 3, 5.1 2.98, 5.42 6.45 C5.74 9.92, 6.6 19.1, 5.82 22.62 C5.05 26.13, 1.77 27.67, 0.76 27.53 C-0.25 27.39, 0.12 26.46, -0.25 21.77 C-0.61 17.08, -1.72 3.29, -1.42 -0.63" stroke="#000000" stroke-width="1" fill="none"></path></g></g><mask></mask><g stroke-linecap="round"><g transform="translate(799.5414889877665 364.56372482367817) rotate(0 11.430918710660308 22.959477920245945)"><path d="M0.17 0.41 C4 0.68, 18.49 0.5, 23.4 0.64 C28.31 0.78, 28.1 0.92, 29.65 1.26 C31.2 1.6, 31.96 1.49, 32.71 2.69 C33.46 3.89, 33.95 6.78, 34.15 8.47 C34.35 10.15, 33.89 8.48, 33.91 12.8 C33.93 17.13, 34.36 29.98, 34.25 34.43 C34.14 38.88, 33.54 37.94, 33.26 39.48 C32.98 41.03, 33.47 42.59, 32.58 43.68 C31.68 44.77, 29.54 45.68, 27.89 46.02 C26.23 46.37, 27.54 45.92, 22.66 45.77 C17.77 45.61, 3.02 45.23, -1.42 45.08 C-5.87 44.92, -2.84 45.37, -4.01 44.84 C-5.19 44.32, -7.22 42.86, -8.47 41.93 C-9.71 41, -11.11 40.58, -11.5 39.27 C-11.88 37.96, -10.78 38.72, -10.76 34.07 C-10.74 29.42, -11.45 16.1, -11.37 11.37 C-11.28 6.64, -10.63 7.36, -10.23 5.7 C-9.83 4.03, -9.91 2.34, -8.99 1.37 C-8.06 0.41, -6.33 -0.01, -4.67 -0.08 C-3.01 -0.16, 0.21 0.97, 0.95 0.92 M-1.21 -0.42 C2.43 -0.41, 17.32 -1.6, 22.44 -1.08 C27.56 -0.55, 27.71 1.94, 29.51 2.74 C31.31 3.53, 32.7 3.2, 33.25 3.7 C33.8 4.21, 32.49 4.34, 32.8 5.77 C33.11 7.21, 34.72 7.21, 35.11 12.31 C35.5 17.41, 35.09 31.94, 35.14 36.38 C35.19 40.81, 36.06 37.9, 35.41 38.92 C34.77 39.94, 32.43 41.28, 31.27 42.49 C30.12 43.7, 29.97 45.44, 28.49 46.2 C27.02 46.95, 27.08 47.32, 22.43 47.03 C17.78 46.73, 4.87 44.91, 0.58 44.43 C-3.71 43.94, -1.7 44.63, -3.31 44.1 C-4.93 43.57, -7.75 42.12, -9.11 41.22 C-10.47 40.33, -11.42 39.82, -11.48 38.74 C-11.55 37.67, -9.31 39.18, -9.51 34.77 C-9.72 30.36, -12.42 17.07, -12.72 12.27 C-13.02 7.47, -12.26 7.83, -11.31 5.97 C-10.36 4.11, -8.18 1.86, -7 1.13 C-5.82 0.4, -5.47 1.72, -4.24 1.57 C-3.01 1.42, -0.33 0.2, 0.36 0.22" stroke="#000000" stroke-width="1" fill="none"></path></g></g><mask></mask><g transform="translate(719.7641277462416 457.60983326751557) rotate(0 91.39999389648438 12)"><text x="0" y="0" font-family="Virgil, Segoe UI Emoji" font-size="20px" fill="#000000" text-anchor="start" style="white-space: pre;" direction="ltr" dominant-baseline="text-before-edge">4 用约定密钥加解密</text></g><g stroke-linecap="round"><g transform="translate(642.642528880023 385.8804695808682) rotate(0 38.62237256922754 0.3767026988735438)"><path d="M0.18 -0.79 C13.29 -0.97, 65.33 -0.41, 78.43 0.03 M-1.18 1.41 C11.74 1.86, 64.01 1.3, 77.18 1.05" stroke="#000000" stroke-width="1" fill="none"></path></g><g transform="translate(642.642528880023 385.8804695808682) rotate(0 38.62237256922754 0.3767026988735438)"><path d="M47.81 10.74 C55.25 8.26, 66.08 7.37, 76.73 2.63 M49.21 11.79 C58.35 8.94, 68.28 4.23, 77.06 1.92" stroke="#000000" stroke-width="1" fill="none"></path></g><g transform="translate(642.642528880023 385.8804695808682) rotate(0 38.62237256922754 0.3767026988735438)"><path d="M47.53 -9.78 C55.24 -6.52, 66.14 -1.68, 76.73 2.63 M48.93 -8.73 C58.04 -4.59, 68.06 -2.3, 77.06 1.92" stroke="#000000" stroke-width="1" fill="none"></path></g></g><mask></mask><g stroke-linecap="round"><g transform="translate(830.6117335095338 320.2331305686423) rotate(0 -36.0761216617376 -79.75916819833219)"><path d="M-1.03 -0.03 C-13.07 -26.29, -59.89 -131.07, -71.55 -157.59 M0.63 -1.08 C-11.68 -27.73, -60.72 -133.27, -72.78 -159.49" stroke="#000000" stroke-width="1" fill="none"></path></g><g transform="translate(830.6117335095338 320.2331305686423) rotate(0 -36.0761216617376 -79.75916819833219)"><path d="M-51.68 -139.13 C-58.54 -146.04, -68.76 -151.88, -71.17 -161.44 M-51.2 -137.68 C-59.99 -145.14, -66.87 -153.28, -73.57 -159.22" stroke="#000000" stroke-width="1" fill="none"></path></g><g transform="translate(830.6117335095338 320.2331305686423) rotate(0 -36.0761216617376 -79.75916819833219)"><path d="M-70.3 -130.51 C-70.48 -140.36, -74.01 -149.29, -71.17 -161.44 M-69.82 -129.06 C-72.13 -139.46, -72.45 -150.63, -73.57 -159.22" stroke="#000000" stroke-width="1" fill="none"></path></g></g><mask></mask><g transform="translate(544.8341121822767 259.60983326751557) rotate(0 109.83997344970703 12)"><text x="0" y="0" font-family="Virgil, Segoe UI Emoji" font-size="20px" fill="#000000" text-anchor="start" style="white-space: pre;" direction="ltr" dominant-baseline="text-before-edge">5 发送加密信息给 1528</text></g></svg>